<?xml version="1.0" standalone="no"?>
<!DOCTYPE svg PUBLIC "-//W3C//DTD SVG 1.1//EN" "http://www.w3.org/Graphics/SVG/1.1/DTD/svg11.dtd" >
<svg xmlns="http://www.w3.org/2000/svg">
<metadata></metadata>
<defs>
<font id="cabrito_norm_regular_normRgIt" horiz-adv-x="605" >
<font-face units-per-em="1000" ascent="765" descent="-235" />
<missing-glyph horiz-adv-x="234" />
<glyph unicode="&#xfb01;" horiz-adv-x="589" d="M489 669q4 23 26 38q-28 21 -86 21q-62 0 -99.5 -35.5t-53.5 -113.5l-17 -79h158l117 7q24 0 17 -28l-82 -388q-9 -42 23 -42q13 0 37 6q8 2 11 0.5t1 -9.5l-5 -26q-3 -12 -16 -17q-27 -7 -57 -7q-82 0 -63 86l71 336q4 18 -3 23.5t-35 6.5h-185l-77 -363q-4 -20 2 -26.5 t28 -6.5h37q9 0 11.5 -2.5t0.5 -10.5l-6 -25q-2 -8 -5 -11t-12 -3h-216q-16 0 -13 14l6 25q2 8 5 10.5t13 2.5h37q22 0 31.5 6.5t13.5 26.5l77 363h-72q-11 0 -13 2.5t0 11.5l4 22q4 16 17 16h75l17 79q43 204 227 204q83 0 119 -31t25 -81q-4 -21 -21 -35t-36 -14t-28.5 13 t-5.5 34z" />
<glyph unicode="&#xfb02;" horiz-adv-x="598" d="M517 582q32 148 -90 148q-119 0 -151 -148l-17 -82h131q15 0 12 -12l-6 -27q-2 -13 -16 -13h-132l-77 -363q-4 -20 2 -26.5t28 -6.5h37q9 0 11.5 -2.5t0.5 -10.5l-6 -25q-2 -8 -5 -11t-12 -3h-216q-16 0 -13 14l6 25q2 8 5 10.5t13 2.5h37q22 0 31.5 6.5t13.5 26.5 l77 363h-72q-11 0 -13 2.5t0 11.5l4 22q4 16 17 16h75l17 81q43 202 228 202q191 0 147 -201l-104 -491q-9 -42 22 -42q14 0 38 6q8 2 11 0.5t1 -9.5l-5 -26q-3 -12 -17 -17q-25 -7 -56 -7q-82 0 -63 86z" />
<glyph unicode="&#xfb03;" horiz-adv-x="856" d="M474 474h-225l-82 -389q-4 -20 2.5 -26.5t28.5 -6.5h37q9 0 11.5 -2.5t0.5 -10.5l-6 -25q-2 -8 -5 -11t-12 -3h-216q-14 0 -11 14l5 25q3 13 17 13h37q22 0 31 6.5t13 26.5l82 389h-72q-10 0 -12 2.5t0 11.5l5 23q3 15 16 15h74l8 34q35 173 211 173q89 0 118 -62 q62 112 199 112q80 0 115.5 -31t24.5 -81q-4 -21 -21.5 -35t-36.5 -14t-28.5 13t-5.5 34q6 28 31 41q-25 22 -86 22q-64 0 -102.5 -35.5t-54.5 -112.5l-13 -58h139l118 7q13 0 16.5 -6.5t0.5 -21.5l-88 -414q-9 -42 23 -42q15 0 37 6q8 2 11.5 0.5t1.5 -9.5l-5 -26 q-3 -12 -17 -17q-25 -7 -57 -7q-82 0 -63 86l77 362q4 22 -7 26t-59 4h-139l-82 -389q-4 -20 2.5 -26.5t27.5 -6.5h37q11 0 13 -2.5t0 -10.5l-6 -25q-3 -14 -18 -14h-215q-16 0 -13 14l6 25q2 8 4.5 10.5t13.5 2.5h37q21 0 30.5 6.5t13.5 26.5zM485 526l12 55q5 46 -17 73.5 t-74 27.5q-113 0 -137 -115l-9 -41h225z" />
<glyph unicode="&#xfb04;" horiz-adv-x="879" d="M707 196h1l81 381q31 145 -81 145q-114 0 -145 -144l-11 -52h118q10 0 13 -2t1 -9l-6 -28q-3 -13 -18 -13h-119l-82 -389q-4 -20 2.5 -26.5t27.5 -6.5h37q11 0 13 -2.5t0 -10.5l-6 -25q-3 -14 -18 -14h-215q-16 0 -13 14l6 25q2 8 4.5 10.5t13.5 2.5h37q21 0 30.5 6.5 t13.5 26.5l82 389h-225l-82 -389q-4 -20 2.5 -26.5t28.5 -6.5h37q9 0 11.5 -2.5t0.5 -10.5l-6 -25q-2 -8 -5 -11t-12 -3h-216q-14 0 -11 14l5 25q3 13 17 13h37q22 0 31 6.5t13 26.5l82 389h-72q-10 0 -12 2.5t0 11.5l5 23q3 15 16 15h74l8 34q35 173 211 173q92 0 119 -58 q58 100 187 100q89 0 125 -46t14 -147l-86 -404h-1l-19 -93q-4 -20 2 -26.5t28 -6.5h37q9 0 11.5 -2.5t0.5 -10.5l-6 -25q-2 -8 -5 -11t-12 -3h-216q-16 0 -13 14l6 25q2 8 5 10.5t13 2.5h37q22 0 31.5 6.5t13.5 26.5zM485 526l12 55q5 46 -17 73.5t-74 27.5 q-113 0 -137 -115l-9 -41h225z" />
<glyph horiz-adv-x="0" />
<glyph horiz-adv-x="333" />
<glyph unicode=" "  horiz-adv-x="234" />
<glyph unicode="&#x09;" horiz-adv-x="234" />
<glyph unicode="&#xa0;" horiz-adv-x="234" />
<glyph unicode="!" horiz-adv-x="250" d="M276 696q-6 -29 -48 -176t-83 -342q-2 -12 -23 -12q-12 0 -16 3t-3 9q41 195 62 342t27 176q11 53 54 53q41 0 30 -53zM44 42q5 24 25 41t42 17t34 -14.5t6 -39.5q-5 -25 -25 -40.5t-43 -15.5q-21 0 -32 14t-7 38z" />
<glyph unicode="&#x22;" horiz-adv-x="369" d="M322 540l30 178q0 15 39 15q23 0 29.5 -3t4.5 -12l-47 -178q-3 -15 -31 -15q-16 0 -21 3t-4 12zM144 540l30 178q1 15 40 15q22 0 28.5 -3t4.5 -12l-46 -178q-4 -15 -31 -15q-16 0 -21.5 3t-4.5 12z" />
<glyph unicode="#" horiz-adv-x="827" d="M364 39l107 172h-228l-126 -201q-9 -14 -16.5 -17.5t-23.5 -3.5q-15 0 -21.5 5.5t-4.5 16.5q3 15 13 28l107 172h-105q-28 0 -21 29q3 14 12 18.5t28 4.5h119l138 219h-128q-27 0 -22 29q3 14 12.5 18.5t28.5 4.5h141l102 161q14 21 24 28t34 7q31 0 16 -32l-19 -34 l-83 -130h226l102 161q14 21 24.5 28t34.5 7q30 0 15 -32l-19 -34l-83 -130h106q17 0 12 -29q-5 -23 -28 -23h-123l-139 -219h130q19 0 12 -29q-5 -23 -28 -23h-147l-126 -201q-9 -14 -16.5 -17.5t-23.5 -3.5q-15 0 -21.5 5.5t-4.5 16.5q3 15 13 28zM415 482l-139 -219h228 l138 219h-227z" />
<glyph unicode="$" horiz-adv-x="568" d="M595 573q-5 -25 -25 -41t-42 -16t-33.5 15t-6.5 39q8 36 44 51q-30 58 -143 58q-154 0 -179 -115q-9 -42 6.5 -71t47 -43.5t71 -29t78 -27.5t68.5 -39t42.5 -64t-0.5 -102q-39 -185 -256 -199l-20 -93q-3 -20 -22 -21h-32q-17 0 -13 20l20 93q-98 5 -140.5 44.5 t-28.5 110.5l14 -1l-4 7q-8 16 13.5 33.5t43.5 17.5q21 0 33 -15t7 -39q-9 -39 -46 -53q30 -53 150 -53q182 0 211 142q10 49 -4.5 82.5t-45 51t-69.5 30.5t-78 27t-69.5 34t-44 57t-2.5 91q34 160 225 175l17 80q3 19 22 20h32q17 0 13 -19l-17 -80q96 -6 137 -47.5 t26 -110.5z" />
<glyph unicode="%" horiz-adv-x="879" d="M105 529q20 92 73.5 150t140.5 58q88 0 118.5 -58.5t10.5 -149.5q-20 -92 -74.5 -150.5t-142.5 -58.5q-87 0 -116.5 58.5t-9.5 150.5zM309 690q-52 0 -88.5 -45.5t-51.5 -116.5q-15 -72 1.5 -116.5t70.5 -44.5q109 0 143 161q15 72 -2.5 117t-72.5 45zM507 200 q20 92 73.5 150t141.5 58t118.5 -58.5t10.5 -149.5q-20 -92 -74.5 -150.5t-142.5 -58.5t-117.5 58.5t-9.5 150.5zM712 361q-52 0 -89 -45.5t-52 -116.5q-15 -72 1.5 -116.5t71.5 -44.5q108 0 142 161q15 72 -2 117t-72 45zM165 50l617 685q14 17 27 14q6 -1 14.5 -8t8.5 -14 q5 -9 -13 -29l-618 -684q-15 -19 -30 -11q-7 2 -13 8t-5 13q-3 8 12 26z" />
<glyph unicode="&#x26;" horiz-adv-x="722" d="M491 580q8 35 42 47q-36 51 -129 51q-75 0 -121 -36t-59 -98q-29 -136 131 -136h358q14 0 17.5 -4t0.5 -20l-16 -109q-1 -9 -3.5 -11.5t-13.5 -2.5h-23q-10 0 -13 2t-2 10l7 57q1 16 -4.5 19.5t-30.5 3.5h-102l-57 -266q-5 -23 0.5 -29.5t25.5 -6.5h29q9 0 11.5 -2.5 t0.5 -9.5l-6 -25q-2 -14 -16 -14h-258q-115 0 -173 49.5t-37 147.5q18 83 73.5 131.5t127.5 53.5q-125 25 -95 166q18 85 84.5 134.5t171.5 49.5q97 0 149 -41.5t37 -110.5q-5 -24 -24 -38t-42 -14q-22 0 -34 14t-7 38zM343 353q-80 0 -141 -38t-78 -117q-16 -70 24.5 -105 t130.5 -34l118 1l63 293h-117z" />
<glyph unicode="'" horiz-adv-x="191" d="M144 540l30 178q1 15 40 15q22 0 28.5 -3t4.5 -12l-46 -178q-4 -15 -31 -15q-16 0 -21.5 3t-4.5 12z" />
<glyph unicode="(" horiz-adv-x="357" d="M423 721q16 8 21 -6q7 -15 -6 -24q-249 -152 -299 -383q-48 -233 137 -383q9 -9 -5 -24q-11 -14 -24 -6q-113 71 -157 178t-17 235t116.5 235t233.5 178z" />
<glyph unicode=")" horiz-adv-x="356" d="M-7 -105q-17 -8 -22 6q-6 16 6 24q249 152 299 383q47 232 -137 383q-7 9 5 24q12 14 25 6q113 -71 157 -178t17 -235q-28 -128 -117 -235t-233 -178z" />
<glyph unicode="*" horiz-adv-x="448" d="M321 545l-1 -1q19 -12 56 -27.5t57 -30.5q11 -9 13 -21t-7 -24q-18 -23 -47 -4q-19 14 -43 44.5t-42 45.5q-4 -25 -4.5 -66.5t-6.5 -67.5q-3 -16 -13 -26.5t-24 -10.5q-12 0 -17.5 10.5t-2.5 25.5q5 26 23 68t24 66q-23 -14 -60.5 -41.5t-61.5 -41.5q-35 -18 -46 6 q-9 23 26 42q24 12 68 26.5t70 27.5q-20 15 -57 30t-56 29q-26 19 -7 43q19 22 48 3q18 -14 42.5 -42.5t41.5 -43.5q5 25 5 67.5t6 69.5q3 15 13 25.5t22 10.5q14 0 19 -10.5t1 -26.5q-6 -27 -22.5 -70t-23.5 -68q26 14 64.5 43.5t63.5 42.5q36 17 45 -5q9 -23 -27 -42 q-26 -14 -70 -29t-69 -27z" />
<glyph unicode="+" horiz-adv-x="499" d="M347 520l-33 -157h168q16 0 10 -25q-3 -15 -8 -21t-17 -6h-164l-37 -171q-3 -17 -31 -17t-23 25l35 163h-163q-16 0 -9 28q3 16 9 20t19 4h155l34 161q4 17 32 17q15 0 20.5 -4.5t2.5 -16.5z" />
<glyph unicode="," horiz-adv-x="256" d="M48 42q5 25 24.5 41.5t43.5 16.5q22 0 33 -16t5 -45q-16 -76 -125 -156q-14 -10 -21 -1l-5 7q-7 8 8 18q50 36 72 83q-20 1 -29.5 15t-5.5 37z" />
<glyph unicode="-" horiz-adv-x="412" d="M113 339h257q9 0 11 -3.5t-1 -11.5l-4 -22q-2 -9 -5.5 -12t-11.5 -3h-257q-9 0 -11.5 3t-0.5 12l4 22q2 9 5.5 12t13.5 3z" />
<glyph unicode="." horiz-adv-x="225" d="M31 42q5 24 25 41t42 17t33.5 -14.5t5.5 -39.5q-5 -25 -24.5 -40.5t-42.5 -15.5q-21 0 -32 14t-7 38z" />
<glyph unicode="/" horiz-adv-x="436" d="M-7 -2l464 737q12 18 21 16l44 -9q11 -3 -1 -22l-468 -740q-5 -8 -6.5 -10t-5.5 -4.5t-8 0.5l-40 11q-7 2 -7.5 5t7.5 16z" />
<glyph unicode="0" horiz-adv-x="668" d="M302 -13q-141 0 -196 108t-19 278q34 162 129 263t231 101q96 0 153.5 -50.5t69.5 -134.5t-9 -194q-35 -163 -130.5 -267t-228.5 -104zM590 368q30 143 -5.5 230t-141.5 87q-107 0 -180 -87.5t-103 -230.5q-32 -152 6 -240t139 -88t177 88t108 241z" />
<glyph unicode="1" horiz-adv-x="342" d="M127 85l117 552q3 16 0 18t-22 -5l-67 -24q-8 -3 -11.5 -0.5t-1.5 10.5l5 26q2 9 6 13t16 8l111 38q16 6 30 6q22 0 16 -28l-130 -614q-4 -21 7.5 -27t50.5 -6h30q10 0 11.5 -2.5t-0.5 -12.5l-3 -17q-2 -9 -4.5 -13.5t-5.5 -5.5t-9 -1h-258q-10 0 -11.5 3t0.5 16l3 18 q2 10 5.5 12.5t13.5 2.5h28q39 0 54 6.5t19 26.5z" />
<glyph unicode="2" horiz-adv-x="569" d="M125 564q15 77 88 122t175 45q112 0 160 -54t30 -140q-22 -104 -154 -213l-324 -268h279q31 0 41 5.5t19 27.5l28 93q8 14 24 14h23q16 0 12 -16l-47 -156q-5 -16 -11 -20t-22 -4h-420q-12 0 -15.5 4t-0.5 18l2 14q4 20 49 58l330 276q97 81 115 166q13 61 -18 101 t-109 40q-51 0 -97.5 -16.5t-75.5 -45.5q34 -11 25 -51q-5 -24 -24 -38t-42 -14q-22 0 -33.5 14t-6.5 38z" />
<glyph unicode="3" horiz-adv-x="575" d="M146 580q14 71 82 111.5t165 40.5q110 0 158 -51t29 -136q-29 -137 -171 -163q70 -6 105.5 -54t17.5 -132q-45 -209 -315 -209q-65 0 -125 9.5t-76 19.5q-7 4 -4 17l6 32q3 11 12 11q2 0 29 -8q75 -22 161 -22q207 0 240 152q17 80 -28 117t-128 37h-24q-13 0 -15.5 2 t0.5 15l5 24q2 10 6.5 12.5t15.5 2.5h23q170 0 198 135q13 64 -18 99.5t-108 35.5q-96 0 -154 -50q27 -12 19 -47q-5 -24 -24 -38t-42 -14q-22 0 -33.5 13.5t-6.5 37.5z" />
<glyph unicode="4" horiz-adv-x="545" d="M228 0q-16 0 -13 14l6 24q2 8 5 11t13 3h38q19 0 27.5 7t14.5 27l13 64h-305q-10 0 -12.5 2.5t-0.5 11.5l5 22q3 12 8 14l461 509q13 13 29 13h39q26 0 0 -29l-449 -491h236l34 156q3 15 18 15h40q10 0 12 -3t0 -11l-34 -157h99q9 0 12 -2.5t2 -9.5l-6 -27 q-3 -13 -18 -13h-100l-12 -57q-5 -25 1 -33t27 -8h34q10 0 12 -2.5t0 -10.5l-5 -24q-3 -15 -18 -15h-213z" />
<glyph unicode="5" horiz-adv-x="543" d="M460 666h-186l-83 -225q37 4 140 4q39 0 69 -6t57.5 -21t41.5 -40.5t20 -65.5t-8 -95q-50 -230 -325 -230q-114 0 -168 21q-10 3 -11.5 8t1.5 13l4 26q2 8 6.5 12t7.5 2q1 0 12 -3.5t22.5 -6.5t29 -6.5t42 -5.5t51.5 -2q108 0 172 42.5t85 140.5q19 88 -17.5 126 t-121.5 38q-21 0 -76 -2t-67 -2q-8 -2 -27 -2q-22 0 -8 38l102 281q7 17 27 17h284q26 0 32 -7.5t2 -35.5l-14 -84q-3 -20 -17 -20h-23q-12 0 -11 22l3 33q2 25 -6.5 30.5t-41.5 5.5z" />
<glyph unicode="6" horiz-adv-x="587" d="M275 -11q-102 0 -153.5 43t-56 118t15.5 178q86 405 393 405q72 0 124 -13q11 -4 12.5 -6.5t-0.5 -11.5l-7 -30q-2 -11 -8 -12.5t-19 1.5q-53 12 -104 12q-129 0 -205 -83.5t-116 -257.5q36 73 96.5 106t127.5 33q108 0 161 -62t28 -180q-25 -120 -102.5 -180t-186.5 -60 zM278 43q76 0 135 47.5t79 142.5q17 83 -18 132t-114 49q-80 0 -138.5 -51.5t-76.5 -136.5q-18 -81 16 -132t117 -51z" />
<glyph unicode="7" horiz-adv-x="499" d="M186 722h412q6 0 7.5 -2t0.5 -8l-4 -19q-4 -19 -29 -57l-427 -621q-11 -15 -23 -15h-49q-16 0 -6 15l451 651h-275q-31 0 -41.5 -6t-17.5 -27l-15 -54q-6 -14 -20 -14h-27q-8 0 -9.5 3.5t1.5 12.5l27 109q7 23 14 27.5t30 4.5z" />
<glyph unicode="8" horiz-adv-x="620" d="M425 732q96 0 143.5 -42t35.5 -122q-6 -40 -23 -74q-34 -66 -113 -93q19 -5 36 -13.5t35 -24.5t28.5 -38t15.5 -54.5t-5 -74.5q-24 -108 -106.5 -158.5t-199.5 -50.5q-120 0 -182 53t-39 171q10 46 33 82t52.5 57.5t56.5 33.5t54 18q-97 34 -71 154q18 85 84 130.5 t165 45.5zM123 202q-17 -83 27 -122t130 -39q87 0 148 39t78 122q15 71 -20 118t-127 49q-102 0 -160.5 -45.5t-75.5 -121.5zM416 680q-66 0 -112 -32t-60 -96q-14 -63 19 -94.5t99 -31.5q63 0 111.5 31.5t61.5 95.5q13 62 -20 94.5t-99 32.5z" />
<glyph unicode="9" horiz-adv-x="598" d="M400 733q76 0 124 -25t66 -72.5t18 -104.5t-16 -133q-45 -212 -140.5 -310.5t-254.5 -98.5q-56 0 -112 10t-53 24l8 37q4 14 18 10q85 -22 142 -22q129 0 205 80t115 253q-39 -70 -98.5 -100t-122.5 -30q-105 0 -158.5 66t-29.5 181q23 106 99.5 170.5t189.5 64.5z M396 676q-83 0 -139 -50.5t-74 -132.5q-18 -85 20 -135t115 -50t136 49t76 131q19 88 -16 138t-118 50z" />
<glyph unicode=":" horiz-adv-x="230" d="M33 42q5 24 25.5 41t42.5 17q21 0 33 -14.5t6 -39.5q-5 -25 -25 -40.5t-43 -15.5q-21 0 -32 14t-7 38zM97 342q5 24 25.5 41t42.5 17q21 0 32.5 -14.5t6.5 -39.5t-25 -40.5t-43 -15.5q-22 0 -33 14.5t-6 37.5z" />
<glyph unicode=";" horiz-adv-x="253" d="M50 42q5 24 25 41t42 17t34 -14.5t6 -39.5q-2 -11 -7 -19q-27 -84 -143 -171q-6 -4 -11 -2q-10 8 -11 18q-2 4 5 9q67 50 94 109q-19 2 -28.5 16t-5.5 36zM112 342q5 24 25 41t42 17t33.5 -14.5t6.5 -39.5t-25 -40.5t-43 -15.5q-22 0 -33 14.5t-6 37.5z" />
<glyph unicode="&#x3c;" horiz-adv-x="590" d="M494 99q18 -8 20 -17.5t-6 -25.5q-14 -34 -48 -16l-383 188q-16 7 -20.5 18.5t0.5 32.5q8 38 42 51l463 188q41 18 41 -16q-1 -13 -2 -18.5t-8 -12t-23 -12.5l-443 -180z" />
<glyph unicode="=" horiz-adv-x="546" d="M498 360h-375q-19 0 -14 27q3 15 10.5 20t22.5 5h371q18 0 13 -27q-5 -25 -28 -25zM468 218h-375q-22 0 -14 27q3 15 10.5 20t22.5 5h371q18 0 13 -27q-5 -25 -28 -25z" />
<glyph unicode="&#x3e;" horiz-adv-x="590" d="M509 279l-444 -180q-15 -6 -22 -12.5t-8.5 -11.5t-2.5 -19q-2 -32 41 -16l464 188q20 8 29 19t13 32h-70zM507 279l-368 180q-17 8 -19 17.5t4 25.5q13 34 50 16l383 -188q16 -7 20.5 -18.5t-0.5 -32.5h-70z" />
<glyph unicode="?" horiz-adv-x="497" d="M472 547q12 53 -16.5 91.5t-97.5 38.5q-104 0 -160 -72q29 -12 21 -48q-6 -25 -24.5 -39t-41.5 -14t-35 15t2 31l6 6h-13q14 66 82.5 120.5t177.5 54.5q98 0 142.5 -50.5t28.5 -129.5q-12 -54 -43.5 -100.5t-69 -78.5t-74.5 -61t-65.5 -62t-35.5 -67l-2 -10 q-3 -16 -22 -16h-24q-24 0 -18 28q9 40 37.5 76.5t65 66t73 60t66.5 72t40 88.5zM140 38q4 23 23.5 38t41.5 15t34 -14t7 -38q-6 -25 -24.5 -39t-41.5 -14q-22 0 -33.5 14t-6.5 38z" />
<glyph unicode="@" horiz-adv-x="846" d="M840 399q-23 -110 -93 -188t-144 -78q-39 0 -57 22.5t-12 62.5q-34 -39 -81 -62t-92 -23q-61 0 -95.5 42.5t-17.5 123.5q21 102 104.5 179.5t191.5 77.5q82 0 108 -42.5t11 -108.5q-12 -49 -59 -138q-9 -23 -11 -34q-11 -53 30 -53q46 0 96.5 67t68.5 152 q28 130 -44.5 204.5t-196.5 74.5q-150 0 -261.5 -100.5t-141.5 -242.5q-31 -144 42 -230.5t213 -86.5q52 0 115 12t107 32q10 5 15 6.5t10 2.5t4.5 -2.5t-0.5 -8.5l-4 -15q-3 -16 -19 -24q-32 -17 -102 -32.5t-138 -15.5q-169 0 -255 101t-51 265q34 165 167 275.5 t309 110.5q152 0 233.5 -87.5t49.5 -238.5zM377 179q68 0 136.5 64.5t88.5 157.5q22 109 -69 109q-78 0 -143.5 -67.5t-82.5 -149.5q-12 -55 7 -84.5t63 -29.5z" />
<glyph unicode="A" horiz-adv-x="681" d="M504 97l-17 147h-273l-81 -152q-12 -25 -7.5 -32t29.5 -8h18q13 -1 15.5 -4t0.5 -13l-4 -20q-2 -10 -6.5 -12.5t-15.5 -2.5h-178q-14 0 -12 14l5 22q4 16 18 16l32 1q13 0 21 7t24 35l335 618l5 7.5t4.5 4t7.5 3t11 0.5h44q16 0 19 -14l74 -614q5 -32 11 -39.5t30 -7.5 l22 -1q13 0 15.5 -2.5t0.5 -12.5l-4 -22q-2 -10 -5.5 -12.5t-16.5 -2.5h-188q-12 0 -15 2.5t-2 11.5l5 22q2 9 6.5 12t17.5 3h18q33 1 37 17q2 12 -1 29zM439 662l-197 -367h239z" />
<glyph unicode="B" horiz-adv-x="634" d="M225 637q7 31 -19 32h-45q-14 0 -11 15l5 24q2 9 5.5 11.5t14.5 2.5h259q115 0 163 -42.5t27 -139.5q-14 -68 -56 -107.5t-88 -47.5l-1 -1q67 -12 100 -60.5t15 -134.5q-13 -58 -42.5 -97.5t-72.5 -58.5t-85 -26t-96 -7h-277q-16 0 -14 14l5 22q4 16 19 16q45 0 58.5 7 t19.5 34zM234 357l-64 -304h143q178 0 208 143q17 82 -23.5 121.5t-129.5 39.5h-134zM301 669l-55 -257h137q140 0 170 134q15 71 -18 97t-106 26h-128z" />
<glyph unicode="C" horiz-adv-x="674" d="M154 348q-29 -138 22.5 -220t197.5 -82q110 0 234 54q10 6 15.5 5t2.5 -12l-6 -33q-1 -11 -20 -20q-94 -51 -241 -51q-163 0 -238 93.5t-36 278.5q35 165 147.5 267.5t276.5 102.5q121 0 171.5 -53t35.5 -122q-6 -24 -25 -38t-41 -14q-23 0 -34.5 13.5t-6.5 37.5 q4 20 19 33.5t34 17.5q-32 71 -159 71q-140 0 -229 -93t-120 -236z" />
<glyph unicode="D" horiz-adv-x="716" d="M707 348q-73 -348 -459 -348h-228q-8 0 -11 3t-2 11l5 22q4 16 18 16q46 0 59.5 7t19.5 34l116 544q7 32 -19 33h-45q-7 0 -10 2.5t-1 11.5l5 24q2 9 5.5 11.5t14.5 2.5h221q198 0 274.5 -93t36.5 -281zM301 669l-131 -614h83q166 0 258 73t126 232q34 161 -27.5 235 t-227.5 74h-81z" />
<glyph unicode="E" horiz-adv-x="610" d="M20 0q-8 0 -11 3t-2 11l5 22q4 16 18 16q46 0 59.5 7t19.5 34l116 544q7 32 -19 33h-45q-7 0 -10 2.5t-1 11.5l5 24q2 9 5.5 11.5t14.5 2.5h436q28 0 34 -7t2 -40l-15 -97q-2 -15 -5 -19.5t-15 -4.5h-20q-12 0 -14.5 3.5t-1.5 18.5l6 47q4 33 -9.5 40t-63.5 7h-208 l-61 -288h140q23 0 31 28l10 39q2 10 6 12.5t15 2.5h17q11 0 13.5 -3t0.5 -12l-40 -188q-3 -15 -17 -15h-20q-11 0 -14 3t-1 12l6 39q5 30 -18 30h-140l-59 -278h254q31 0 41 6.5t19 30.5l29 93q7 14 23 14h23q16 0 12 -16l-47 -156q-4 -16 -10.5 -20t-22.5 -4h-471z" />
<glyph unicode="F" horiz-adv-x="588" d="M21 0q-10 0 -12.5 3t-1.5 11l6 24q3 14 19 14h33q21 0 30 8t14 33l116 544q7 32 -19 33h-45q-7 0 -10 2.5t-1 11.5l5 24q2 9 5.5 11.5t14.5 2.5h448q28 0 34 -7t2 -40l-14 -97q-2 -15 -5.5 -19.5t-15.5 -4.5h-20q-12 0 -15 4t-1 18l6 47q4 33 -9.5 40t-63.5 7h-220 l-62 -291h152q24 0 31 29l11 39q1 10 5 12.5t16 2.5h17q11 0 13.5 -3t-0.5 -13l-39 -187q-5 -15 -18 -15h-20q-10 0 -13.5 3t-1.5 11l7 40q5 29 -19 29h-152l-51 -242q-4 -20 3 -26.5t27 -6.5h34q10 0 12 -2.5t0 -10.5l-5 -24q-3 -15 -18 -15h-209z" />
<glyph unicode="G" horiz-adv-x="700" d="M442 301l6 26q3 15 14 15h196q17 0 14 -16l-66 -310q-3 -16 -17 -16h-26q-16 0 -16 14l1 18q-90 -45 -189 -45q-158 0 -236 97.5t-39 280.5q35 165 147 265.5t273 100.5q122 0 176.5 -51t37.5 -126q-5 -25 -24 -38.5t-42 -13.5q-22 0 -33.5 13.5t-6.5 37.5q4 20 19.5 34 t34.5 18q-33 72 -166 72q-134 0 -225 -91.5t-121 -233.5q-30 -145 26.5 -226.5t183.5 -81.5q97 0 191 48l38 180q4 16 -14 16h-126q-12 0 -11 13z" />
<glyph unicode="H" horiz-adv-x="744" d="M222 629q5 25 0 33t-25 8h-36q-10 0 -12 2.5t0 12.5l5 22q3 15 18 15h209q9 0 11.5 -3t0.5 -12l-5 -22q-2 -10 -5 -12.5t-13 -2.5h-37q-20 0 -28 -7.5t-14 -33.5l-52 -244h353l52 244q5 25 0 33t-25 8h-36q-10 0 -12 2.5t0 12.5l5 22q3 15 18 15h209q9 0 11.5 -3t0.5 -12 l-5 -22q-2 -10 -5 -12.5t-13 -2.5h-37q-20 0 -28 -7.5t-14 -33.5l-114 -536q-5 -25 1.5 -33t27.5 -8h35q9 0 11 -2.5t0 -10.5l-5 -24q-3 -15 -17 -15h-210q-16 0 -13 14l6 24q2 8 5 11t13 3h34q20 0 29 8t14 33l51 240h-353l-51 -240q-5 -25 1.5 -33t27.5 -8h35q9 0 11 -2.5 t0 -10.5l-5 -24q-3 -15 -17 -15h-210q-16 0 -13 14l6 24q2 8 5 11t13 3h34q20 0 29 8t14 33z" />
<glyph unicode="I" horiz-adv-x="322" d="M222 629q5 25 0 33t-25 8h-36q-10 0 -12 2.5t0 12.5l5 22q3 15 18 15h209q9 0 11.5 -3t0.5 -12l-5 -22q-2 -10 -5 -12.5t-13 -2.5h-37q-20 0 -28 -7.5t-14 -33.5l-114 -536q-5 -25 1.5 -33t27.5 -8h35q9 0 11 -2.5t0 -10.5l-5 -24q-3 -15 -17 -15h-210q-16 0 -13 14l6 24 q2 8 5 11t13 3h34q20 0 29 8t14 33z" />
<glyph unicode="J" horiz-adv-x="509" d="M18 140q5 24 24 38.5t42 14.5t34 -14t6 -38q-4 -21 -19 -34.5t-33 -16.5q15 -47 94 -47q65 0 108.5 48t60.5 126l87 412q5 25 0 33t-25 8h-36q-10 0 -12 2.5t0 12.5l5 22q3 15 18 15h209q9 0 11.5 -3t0.5 -12l-5 -22q-2 -10 -5 -12.5t-13 -2.5h-37q-20 0 -28 -7.5 t-14 -33.5l-89 -418q-21 -102 -81 -161t-155 -59q-94 0 -127.5 42t-20.5 107z" />
<glyph unicode="K" horiz-adv-x="683" d="M222 629q5 25 0 33t-25 8h-36q-10 0 -12 2.5t0 12.5l5 22q3 15 18 15h209q9 0 11.5 -3t0.5 -12l-5 -22q-2 -10 -5 -12.5t-13 -2.5h-37q-20 0 -28 -7.5t-14 -33.5l-61 -287l337 299q29 28 6 29h-29q-14 0 -10 21l4 16q3 15 17 15h197q9 0 11.5 -3t0.5 -12l-4 -20 q-5 -17 -19 -17h-42q-29 0 -77 -41l-235 -208h1q40 0 69 -18.5t45 -46t26.5 -70t15.5 -81t9 -88.5q1 -17 2 -26q3 -26 12 -35.5t28 -9.5q15 0 44 14q8 4 12 1t2 -11l-5 -23q-2 -15 -23 -25q-26 -13 -56 -13q-21 0 -34.5 4t-27.5 22.5t-19 53.5q-3 19 -6.5 58t-6 68t-11 65 t-21.5 59.5t-36.5 39.5t-55.5 16h-16l-121 -108l-37 -174q-5 -25 1.5 -33t27.5 -8h35q9 0 11 -2.5t0 -10.5l-5 -24q-3 -15 -17 -15h-210q-16 0 -13 14l6 24q2 8 5 11t13 3h34q20 0 29 8t14 33z" />
<glyph unicode="L" horiz-adv-x="581" d="M223 629q5 25 0 33t-25 8h-36q-10 0 -12 2.5t0 12.5l5 22q3 15 18 15h209q9 0 11.5 -3t0.5 -12l-5 -22q-2 -10 -5 -12.5t-13 -2.5h-37q-20 0 -28 -7.5t-14 -33.5l-122 -577h235q31 0 41 6.5t19 30.5l29 93q7 14 23 14h23q16 0 12 -16l-46 -156q-5 -16 -11.5 -20t-21.5 -4 h-453q-8 0 -11 3t-2 11l5 22q4 16 18 16q46 0 59.5 7t19.5 34z" />
<glyph unicode="M" horiz-adv-x="921" d="M340 701l104 -645l369 651q10 15 36 15h132q9 0 12 -3t1 -12l-4 -19q-3 -16 -20 -17l-48 -1q-26 0 -33 -31l-117 -554q-4 -21 0 -27t21 -6h47q10 0 12.5 -4t0.5 -14l-4 -19q-3 -15 -20 -15h-217q-10 0 -12.5 3t-0.5 12l4 19q3 18 20 18h45q18 0 26 6.5t12 26.5l111 522 l-332 -594q-5 -9 -11 -12t-21 -3h-49q-18 0 -23 14l-99 603l-114 -539q-4 -15 3.5 -19.5t31.5 -4.5h37q9 0 11 -2t1 -12l-5 -23q-3 -15 -18 -15h-213q-9 0 -11.5 2.5t-1.5 11.5l5 24q1 9 5 11.5t14 2.5h36q23 0 32 4.5t13 19.5l119 561q2 11 -0.5 18.5t-10.5 10.5t-14.5 4 t-19.5 1h-19q-16 0 -13 14l5 22q3 15 19 15h145q17 0 21 -21z" />
<glyph unicode="N" horiz-adv-x="760" d="M61 52q21 0 30.5 5t12.5 20l120 563q2 18 -4.5 24t-25.5 6h-30q-10 0 -12 2.5t0 12.5l5 23q3 14 18 14h107q21 0 26 -15l256 -605l116 543q3 15 -3.5 20t-28.5 5h-33q-9 0 -11.5 2.5t-0.5 11.5l5 23q3 15 18 15h201q9 0 11.5 -2.5t0.5 -11.5l-5 -23q-3 -15 -18 -15h-32 q-22 0 -31 -5t-12 -20l-136 -637q-3 -16 -21 -16h-17q-19 0 -25 13l-264 609l-114 -537q-4 -15 3.5 -20t29.5 -5h33q9 0 11 -2t1 -12l-5 -23q-3 -15 -18 -15h-201q-9 0 -11.5 2.5t-1.5 11.5l5 23q3 15 19 15h32z" />
<glyph unicode="O" horiz-adv-x="778" d="M84 371q11 53 31 102t54 97.5t78 83.5t107 57t138 22q78 0 136.5 -21.5t90.5 -58t50 -86t16 -104.5t-12 -114q-15 -67 -43.5 -127t-76 -115t-122 -87.5t-167.5 -32.5q-78 0 -136.5 21.5t-90.5 58t-50 86t-15.5 104.5t12.5 114zM494 679q-61 0 -113 -19.5t-88 -50.5 t-64.5 -74t-45 -85.5t-26.5 -88.5q-10 -45 -11.5 -87.5t9 -86t33.5 -75t67.5 -51.5t106.5 -20q63 0 116.5 20.5t89 52t63.5 75t44 84.5t25 85q9 45 11 87t-8.5 85.5t-33.5 75.5t-67.5 52.5t-107.5 20.5z" />
<glyph unicode="P" horiz-adv-x="601" d="M329 272h-113l-38 -179q-5 -25 1 -33t28 -8h34q10 0 12 -2.5t0 -10.5l-5 -24q-3 -15 -18 -15h-209q-10 0 -12.5 3t-1.5 11l6 24q3 14 19 14h33q21 0 30 8t14 33l116 544q7 32 -19 33h-45q-7 0 -10 2.5t-1 11.5l5 24q2 9 5.5 11.5t14.5 2.5h214q148 0 209 -54.5t33 -179.5 q-23 -107 -103 -161.5t-199 -54.5zM227 324h93q204 0 241 176q19 92 -23 131t-151 39h-86z" />
<glyph unicode="Q" horiz-adv-x="778" d="M84 371q11 53 31 102t54 97.5t78 83.5t107 57t138 22q78 0 136.5 -21.5t90.5 -58t50 -86t16 -104.5t-12 -114q-12 -53 -32.5 -102t-52.5 -96.5t-79.5 -84.5t-106.5 -57q27 -12 50 -46q2 -3 8.5 -13t9 -13.5t8 -11.5t9 -11.5l9 -9t10 -8t10 -4.5t11.5 -2q21 0 51 13 q8 3 12 1.5t2 -10.5l-6 -28q-3 -12 -20 -19q-31 -14 -62 -14q-25 0 -44.5 9t-27 16t-26.5 34t-26 35q-27 32 -55.5 44t-81.5 16l-1 1q-73 3 -127 26t-84.5 59t-45 85t-14 101.5t12.5 111.5zM494 679q-61 0 -113 -19.5t-88 -50.5t-64.5 -74t-45 -85.5t-26.5 -88.5 q-10 -45 -11.5 -87.5t9 -86t33.5 -75t67.5 -51.5t106.5 -20q63 0 116.5 20.5t89 52t63.5 75t44 84.5t25 85q9 45 11 87t-8.5 85.5t-33.5 75.5t-67.5 52.5t-107.5 20.5z" />
<glyph unicode="R" horiz-adv-x="619" d="M295 292h-75l-43 -199q-5 -25 1.5 -33t27.5 -8h35q9 0 11 -2.5t0 -10.5l-5 -24q-3 -15 -17 -15h-210q-16 0 -13 14l6 24q2 8 5 11t13 3h34q20 0 29 8t14 33l116 544q7 32 -19 33h-45q-7 0 -10 2.5t-1 11.5l5 24q2 9 5.5 11.5t14.5 2.5h214q130 0 183 -54t28 -170 q-33 -157 -186 -196q27 -21 42.5 -68t33.5 -146q5 -26 13.5 -34.5t26.5 -8.5q20 0 45 12q10 5 13 3t1 -9l-5 -24q-2 -14 -22 -24q-30 -14 -61 -14q-20 0 -33.5 4t-27.5 23t-21 53q-2 9 -7.5 43t-9 51t-13 46t-20.5 44t-30 27t-43 12zM231 344h91q85 0 136 40t69 126 q18 83 -18.5 121.5t-124.5 38.5h-84z" />
<glyph unicode="S" horiz-adv-x="567" d="M489 572q8 38 46 50q-33 57 -150 57q-152 0 -177 -115q-9 -44 6.5 -74.5t46.5 -46t70.5 -30.5t77.5 -28t68 -40t42.5 -66t-0.5 -105q-38 -187 -275 -187q-121 0 -175 39.5t-38 116.5q5 26 23.5 41.5t43.5 15.5q51 0 41 -52q-4 -19 -18.5 -32.5t-31.5 -17.5 q30 -58 161 -58q177 0 206 142q10 48 -4.5 81t-45.5 50.5t-70 30.5t-77.5 28.5t-68.5 36.5t-43 62t-1 99q34 162 238 162q123 0 176 -42t35 -117q-5 -25 -24 -38.5t-42 -13.5q-22 0 -33.5 13.5t-6.5 37.5z" />
<glyph unicode="T" horiz-adv-x="593" d="M366 668h-132q-24 0 -31 -3.5t-12 -20.5l-21 -71q-3 -10 -6.5 -12t-15.5 -2h-22q-10 0 -12 3t1 13l33 123q5 17 10 20.5t19 3.5h471q14 0 17.5 -3.5t1.5 -20.5l-18 -123q-1 -7 -2.5 -10t-5.5 -4.5t-12 -1.5h-21q-11 0 -14 2.5t-3 11.5l10 71q2 17 -5 20.5t-36 3.5h-125 l-122 -575q-5 -25 1 -33t28 -8h35q9 0 11 -2.5t0 -10.5l-5 -24q-3 -15 -17 -15h-210q-16 0 -13 14l6 24q2 8 5 11t13 3h34q20 0 29 8t14 33z" />
<glyph unicode="U" horiz-adv-x="746" d="M348 53q196 0 243 218l77 360q4 24 -1 31.5t-25 7.5h-36q-9 0 -11.5 3t-0.5 12l5 22q3 15 18 15h202q9 0 12 -3t1 -12l-5 -22q-2 -10 -5.5 -12.5t-13.5 -2.5h-37q-20 0 -27.5 -7t-12.5 -32l-78 -365q-58 -273 -314 -273q-266 0 -209 270l78 366q5 25 0 33t-25 8h-36 q-10 0 -12 2.5t0 12.5l5 22q3 15 18 15h209q9 0 11.5 -3t0.5 -12l-5 -22q-2 -10 -5 -12.5t-13 -2.5h-37q-20 0 -28 -7.5t-14 -33.5l-76 -360q-23 -110 12.5 -163t134.5 -53z" />
<glyph unicode="V" horiz-adv-x="680" d="M254 625l64 -561l306 566q13 25 9 32t-30 8h-18q-13 1 -15.5 4t-0.5 13l4 20q2 10 6.5 12.5t15.5 2.5h181q14 0 11 -14l-5 -22q-2 -16 -17 -16l-34 -1q-14 0 -22 -7t-23 -35l-336 -620l-5 -7.5t-4.5 -4t-7.5 -3t-11 -0.5h-44q-16 0 -19 14l-73 616q-5 32 -11 39.5 t-30 7.5l-22 1q-13 0 -16 2.5t-1 12.5l5 22q2 10 6 12.5t16 2.5h187q12 0 15 -2.5t1 -11.5l-5 -22q-2 -9 -6 -12t-17 -3h-18q-33 -1 -36 -17q-3 -10 0 -29z" />
<glyph unicode="W" horiz-adv-x="994" d="M256 625l32 -556l282 628q9 18 11.5 21.5t11.5 3.5h49q8 0 9.5 -4t2.5 -22l29 -608l256 534q15 33 8.5 40.5t-52.5 7.5q-15 0 -12 14l5 25q2 9 4.5 11t13.5 2h184q9 0 11 -2.5t0 -11.5l-5 -24q-1 -6 -2 -8t-4.5 -4t-10.5 -2q-42 0 -54.5 -8t-31.5 -46l-290 -605 q-6 -12 -11.5 -15t-16.5 -3h-37q-11 0 -14.5 4t-4.5 14l-28 601l-269 -601q-6 -12 -10.5 -15.5t-16.5 -3.5h-52q-9 0 -13 3.5t-4 14.5l-41 612q-2 35 -10.5 41.5t-49.5 6.5q-11 0 -13.5 3.5t-0.5 13.5l4 22q2 9 4.5 11t10.5 2h201q9 0 11 -2.5t0 -10.5l-5 -26 q-3 -13 -15 -13q-39 0 -51 -2.5t-14 -13.5q-3 -9 -1 -29z" />
<glyph unicode="X" horiz-adv-x="629" d="M274 651l96 -219l178 212q13 17 12 21.5t-15 4.5h-27q-14 0 -10 13l5 25q3 14 16 14h176q7 0 9 -3t0 -11l-5 -23q-3 -15 -15 -15h-26q-17 0 -28.5 -6t-30.5 -27l-216 -258l125 -280q13 -30 22 -38t24 -8h22q12 0 14 -3.5t1 -11.5l-5 -21q-2 -10 -5 -13.5t-14 -3.5h-171 q-12 0 -15 3.5t-1 13.5l4 19q3 16 23 16h25q7 0 10 1t2.5 8t-6.5 21l-105 237l-201 -240q-14 -19 -12.5 -22.5t17.5 -3.5h30q13 0 10 -16l-4 -22q-4 -15 -17 -15h-181q-15 0 -11 15l4 21q4 17 18 17h28q15 0 25.5 6t31.5 30l239 284l-112 256q-12 27 -20.5 33.5t-30.5 6.5 h-22q-13 0 -10 14l5 27q4 12 16 12h178q7 0 9.5 -2t1.5 -9l-6 -27q-3 -14 -17 -14h-30q-10 0 -11.5 -4t3.5 -15z" />
<glyph unicode="Y" horiz-adv-x="622" d="M301 291l-109 338q-8 25 -15.5 32.5t-23.5 7.5h-28q-10 0 -12.5 3.5t-0.5 13.5l5 22q3 14 17 14h186q9 0 11.5 -2.5t0.5 -11.5l-4 -21q-2 -10 -6 -13.5t-13 -3.5h-26q-18 0 -22.5 -5t2.5 -25l86 -291l221 292q13 20 11.5 24.5t-18.5 4.5h-29q-9 0 -11.5 4t0.5 14l4 20 q3 14 18 14h175q13 0 10 -14l-4 -21q-2 -10 -6 -13.5t-13 -3.5h-28q-14 0 -22.5 -5.5t-28.5 -31.5l-254 -326l-47 -222q-4 -20 3 -26.5t27 -6.5h34q10 0 12 -2.5t0 -10.5l-5 -24q-3 -15 -18 -15h-209q-10 0 -12.5 3t-1.5 11l6 24q3 14 19 14h33q19 0 28 6.5t15 27.5z" />
<glyph unicode="Z" horiz-adv-x="584" d="M190 722h442q16 0 11 -22l-3 -17q-3 -13 -18 -30l-524 -601h309q26 0 38.5 15t47.5 89q7 19 22 19h23q12 0 5 -20l-46 -140q-5 -15 -22 -15h-460q-11 1 -6 21l3 21q3 13 9 19l530 609h-278q-38 0 -51.5 -17t-39.5 -93q-6 -19 -19 -19h-30q-10 0 -4 22l39 143q4 16 22 16z " />
<glyph unicode="[" horiz-adv-x="272" d="M236 747h97q15 0 21 -4t4 -11l-4 -17q-2 -13 -8 -16.5t-22 -3.5h-61l-170 -802h61q15 0 19.5 -4t2.5 -15l-4 -17q-4 -16 -31 -16h-97q-16 0 -21 7.5t-1 25.5l178 840q5 19 12.5 26t23.5 7z" />
<glyph unicode="\" horiz-adv-x="411" d="M212 695l135 -654q4 -19 2 -27q-5 -25 -35 -25q-19 0 -25.5 6.5t-10.5 28.5l-137 666q-3 11 0 24q4 16 31 16q24 0 29.5 -6t10.5 -29z" />
<glyph unicode="]" horiz-adv-x="273" d="M181 747h97q17 0 21.5 -7t0.5 -26l-178 -840q-4 -19 -12 -26t-24 -7h-95q-16 0 -21 4t-4 12l4 17q4 19 28 19h61l170 802h-61q-16 0 -20 3.5t-2 16.5l4 17q3 15 31 15z" />
<glyph unicode="^" horiz-adv-x="550" d="M492 438l-111 243l-212 -243q-12 -14 -16.5 -17.5t-13 -6.5t-22.5 -3q-41 0 -14 32l248 288q15 20 45 20q11 0 17 -1t11.5 -5.5t8.5 -13.5l126 -288q13 -32 -28 -32q-20 0 -26 4.5t-13 22.5z" />
<glyph unicode="_" horiz-adv-x="843" d="M705 -73h-676q-19 0 -14 29q3 16 13 21t29 5h664q18 0 12 -28q-3 -15 -9 -21t-19 -6z" />
<glyph unicode="`" horiz-adv-x="273" d="M309 655l-8 -12q-8 -10 -25 -3l-130 52q-21 9 -9 22l25 32q9 10 27 -1l118 -70q12 -7 2 -20z" />
<glyph unicode="a" horiz-adv-x="593" d="M468 91q-9 -42 22 -42q14 0 38 6q8 2 11.5 0.5t1.5 -9.5l-5 -26q-3 -12 -17 -17q-27 -7 -57 -7q-82 0 -63 86l1 7q-69 -102 -194 -102q-96 0 -135 68t-12 199q28 130 107 209.5t193 79.5q73 0 129 -44l1 8q4 16 10 22t19 6l114 -8q15 -1 11 -15l-5 -27q-2 -10 -18 -12 h-45q-14 -2 -21 -7.5t-12 -25.5zM227 42q144 0 210 218l38 181q-40 47 -122 47q-88 0 -146 -71t-80 -173q-9 -53 -7.5 -98t29 -74.5t78.5 -29.5z" />
<glyph unicode="b" horiz-adv-x="565" d="M50 39l134 633q4 17 0 24t-19 8h-47q-9 1 -11 5t1 11l4 19q2 11 5 13.5t12 3.5l119 7q14 1 17.5 -6t-0.5 -22l-67 -312q72 120 191 120q206 0 151 -271q-11 -58 -31.5 -105.5t-55 -89.5t-88.5 -66t-124 -24q-125 0 -183 32q-12 4 -8 20zM372 488q-142 0 -208 -220 l-43 -206q52 -19 123 -19q176 0 224 229q47 216 -96 216z" />
<glyph unicode="c" horiz-adv-x="519" d="M133 262q-45 -213 150 -213q71 0 162 37q13 5 16 3t1 -12l-5 -25q-3 -14 -18 -22q-70 -38 -174 -38q-132 0 -181.5 73.5t-22.5 202.5q27 127 111 201.5t203 74.5q90 0 126.5 -40.5t25.5 -93.5q-5 -23 -22 -37t-39 -14q-20 0 -30.5 13t-6.5 35q7 33 38 49q-28 33 -102 33 q-94 0 -152.5 -63.5t-79.5 -163.5z" />
<glyph unicode="d" horiz-adv-x="587" d="M468 91q-9 -42 22 -42q14 0 38 6q8 2 11 0.5t1 -9.5l-5 -26q-3 -12 -16 -17q-27 -7 -57 -7q-82 0 -63 86l2 8q-36 -50 -88 -76.5t-109 -26.5q-94 0 -132.5 69.5t-11.5 193.5q28 132 106.5 212.5t192.5 80.5q44 0 72 -11t57 -33l36 173q7 31 -19 32h-47q-9 1 -11 5t1 11 l4 19q2 11 5 13.5t12 3.5l119 7q13 1 16.5 -5.5t0.5 -22.5zM227 42q144 0 210 218l38 181q-40 47 -122 47q-88 0 -146 -71t-80 -173q-9 -54 -7 -99t29.5 -74t77.5 -29z" />
<glyph unicode="e" horiz-adv-x="522" d="M345 544q98 0 140 -45.5t23 -130.5q-37 -161 -236 -161q-88 0 -147 26q-16 -99 18.5 -143t116.5 -44q72 0 135 25q12 4 23.5 9t16.5 7t8 2q8 0 5 -10l-5 -26q-2 -9 -6.5 -13.5t-18.5 -11.5q-25 -13 -72 -24.5t-94 -11.5q-127 0 -172.5 71.5t-17.5 201.5q28 129 101.5 204 t181.5 75zM338 492q-74 0 -125.5 -54.5t-76.5 -153.5q64 -26 142 -26q143 0 168 118q25 116 -108 116z" />
<glyph unicode="f" horiz-adv-x="352" d="M-147 -156q5 21 22 35t35 14q19 0 29.5 -12.5t6.5 -33.5q-6 -27 -32 -41q15 -9 37 -9q89 0 114 119l118 556h-74q-11 0 -13 2.5t0 11.5l4 22q4 16 17 16h77l12 55q43 204 204 204q63 0 90 -31t16 -81q-4 -21 -21 -35t-36 -14t-28.5 13t-5.5 34q6 31 37 44q-19 19 -57 19 q-51 0 -83.5 -35t-48.5 -111l-13 -62h130q9 0 12 -2.5t1 -9.5l-5 -27q-3 -13 -18 -13h-131l-116 -544q-18 -85 -64.5 -132t-120.5 -47q-54 0 -78.5 27.5t-16.5 67.5z" />
<glyph unicode="g" horiz-adv-x="588" d="M168 -195q174 0 213 189l21 96q-36 -50 -88 -76.5t-109 -26.5q-93 0 -131.5 69t-12.5 194q28 132 106.5 212.5t192.5 80.5q44 0 72 -11t57 -33l1 8q4 16 10 22t20 6l112 -7q9 -1 11.5 -4t1.5 -11l-6 -26q-2 -9 -19 -12h-43q-18 -1 -24 -10t-12 -35l-92 -433 q-27 -128 -99 -187t-192 -59q-82 0 -131.5 32t-35.5 104q4 20 20.5 33t35.5 13t30 -12t7 -32q-6 -28 -35 -43q24 -41 119 -41zM228 42q144 0 210 218l38 181q-40 47 -122 47q-88 0 -145.5 -71t-79.5 -173q-18 -87 4 -144.5t95 -57.5z" />
<glyph unicode="h" horiz-adv-x="604" d="M228 443q63 101 184 101q81 0 118 -44.5t19 -130.5l-59 -278q-9 -42 22 -42q15 0 37 6q8 2 11.5 0.5t1.5 -9.5l-5 -26q-3 -12 -17 -17q-25 -7 -57 -7q-81 0 -62 86l58 275q28 128 -89 128q-76 0 -127 -57t-73 -162l-54 -252q-2 -8 -5 -11t-12 -3h-37q-15 0 -12 14 l141 659q3 17 -1.5 23.5t-18.5 7.5h-48q-9 1 -11 5t1 12l4 19q2 10 5 12.5t12 3.5l119 7q14 1 17.5 -6t-0.5 -22z" />
<glyph unicode="i" horiz-adv-x="296" d="M172 91q-9 -42 22 -42q14 0 38 6q8 2 11 0.5t1 -9.5l-5 -26q-3 -12 -17 -17q-25 -7 -57 -7q-81 0 -62 86l77 361q3 17 -1 23.5t-19 7.5h-47q-9 1 -10.5 5t0.5 12l4 19q2 10 5 12.5t12 3.5l119 7q13 1 16.5 -5.5t0.5 -22.5zM213 703q5 26 24 42t43 16q21 0 32 -15t6 -39 q-6 -25 -25.5 -40t-42.5 -15q-21 0 -31.5 14t-5.5 37z" />
<glyph unicode="j" horiz-adv-x="258" d="M-157 -156q5 21 21.5 35t35.5 14t29 -12.5t6 -33.5q-6 -28 -31 -41q16 -9 37 -9q89 0 114 119l112 529q7 30 -19 31h-48q-9 1 -10.5 5t0.5 12l4 19q2 10 5 12.5t12 3.5l118 7q13 1 17.5 -6t0.5 -22l-123 -579q-18 -84 -65 -131.5t-121 -47.5q-54 0 -78.5 27.5t-16.5 67.5 zM197 703q5 26 24.5 42t42.5 16q21 0 32.5 -15.5t6.5 -38.5q-6 -25 -25.5 -40t-42.5 -15q-21 0 -32 14t-6 37z" />
<glyph unicode="k" horiz-adv-x="559" d="M208 672q4 17 0 24t-19 8h-47q-15 0 -10 16l4 19q2 11 5 13.5t12 3.5l119 7q14 1 17.5 -6t-0.5 -22l-96 -451l212 162q38 29 -1 29h-24q-10 0 -12.5 3.5t-0.5 12.5l5 22q3 13 16 13h208q9 0 11.5 -2t1.5 -11l-5 -23q-3 -15 -19 -15h-34q-20 0 -34.5 -7t-45.5 -30 l-216 -163l145 -173q27 -33 39 -43t24 -10q16 0 38 6q9 2 12 0.5t1 -9.5l-5 -26q-6 -25 -72 -25q-25 0 -40.5 11t-49.5 54l-144 176l-17 18l-51 -240q-2 -8 -5 -11t-12 -3h-37q-16 0 -13 14z" />
<glyph unicode="l" horiz-adv-x="258" d="M191 672q4 17 0 24t-19 8h-47q-9 1 -11 5t1 11l4 19q2 11 5 13.5t12 3.5l119 7q14 1 17.5 -6t-0.5 -22l-137 -644q-6 -42 23 -42q13 0 37 6q8 2 11 0.5t1 -9.5l-5 -26q-3 -12 -16 -17q-27 -7 -57 -7q-82 0 -63 86z" />
<glyph unicode="m" horiz-adv-x="918" d="M174 445q4 21 -7 25.5t-60 4.5q-15 0 -12 13l5 23q4 15 19 16l117 7q14 0 17.5 -6.5t-0.5 -21.5l-11 -53q64 91 180 91q54 0 87 -25.5t39 -75.5q65 101 193 101q72 0 106 -44.5t16 -130.5l-59 -278q-9 -42 22 -42q14 0 38 6q8 2 11 0.5t1 -9.5l-5 -26q-3 -12 -17 -17 q-25 -7 -57 -7q-81 0 -62 86l58 275q27 127 -81 127q-141 0 -182 -178l-63 -292q-2 -8 -5 -11t-12 -3h-37q-15 0 -12 14l73 343q27 127 -81 127q-145 0 -184 -187l-61 -283q-2 -8 -5 -11t-12 -3h-37q-15 0 -12 14z" />
<glyph unicode="n" horiz-adv-x="616" d="M177 445q4 21 -7 25.5t-59 4.5q-15 0 -12 13l5 23q2 9 5.5 12t13.5 4l115 7q13 0 16.5 -6.5t0.5 -21.5l-14 -68q31 52 80.5 79t106.5 27q80 0 117 -44.5t19 -130.5l-59 -278q-9 -42 23 -42q15 0 37 6q8 2 11.5 0.5t1.5 -9.5l-5 -27q-3 -10 -11 -14q-27 -9 -63 -9 q-82 0 -63 86l58 275q28 128 -88 128q-76 0 -127 -57t-73 -162l-54 -252q-2 -8 -5 -11t-12 -3h-37q-16 0 -13 14z" />
<glyph unicode="o" horiz-adv-x="568" d="M64 278q25 121 95.5 193.5t191.5 72.5q127 0 173 -79.5t18 -210.5q-25 -121 -97 -194t-193 -73q-126 0 -171 80.5t-17 210.5zM350 492q-170 0 -218 -226q-48 -227 122 -227q172 0 220 227q48 226 -124 226z" />
<glyph unicode="p" horiz-adv-x="597" d="M161 445q4 21 -7 25.5t-60 4.5q-14 0 -11 13l5 23q2 9 5.5 12t13.5 4l117 7q13 0 16.5 -6.5t0.5 -21.5l-18 -84q74 121 211 121q197 0 140 -279q-59 -277 -284 -277q-84 0 -151 38l-40 -189q-4 -20 2.5 -26.5t28.5 -6.5h37q9 0 11.5 -2.5t0.5 -10.5l-5 -25 q-4 -14 -18 -14h-215q-16 0 -12 14l4 25q3 13 19 13h36q22 0 31 6.5t13 26.5zM408 488q-151 0 -217 -218l-39 -184q48 -44 136 -44q167 0 217 233q45 213 -97 213z" />
<glyph unicode="q" horiz-adv-x="587" d="M283 -197q33 0 46 6.5t17 26.5l54 254q-36 -50 -88 -76.5t-109 -26.5q-93 0 -131.5 69t-12.5 194q28 132 106.5 212.5t192.5 80.5q44 0 72 -11t57 -33l1 8q4 16 10 22t20 6l112 -7q15 -1 12 -15l-6 -26q-2 -9 -18 -12h-44q-17 -1 -23 -10t-12 -35l-126 -594 q-4 -20 3 -26.5t33 -6.5h29q15 0 11 -15l-4 -20q-2 -11 -5.5 -14t-12.5 -3h-226q-9 0 -11.5 3t-0.5 14l4 20q4 15 19 15h31zM226 42q144 0 210 218l38 181q-40 47 -122 47q-88 0 -145.5 -71t-79.5 -173q-18 -87 4 -144.5t95 -57.5z" />
<glyph unicode="r" horiz-adv-x="469" d="M234 396q11 23 27 45.5t40.5 47t59 40t73.5 15.5q49 0 70.5 -23.5t13.5 -63.5q-5 -21 -22 -34.5t-36 -13.5t-28.5 12.5t-5.5 33.5q4 18 19 33q-9 4 -26 4q-50 0 -98.5 -42.5t-78.5 -98.5t-41 -109l-33 -157q-4 -20 2.5 -26.5t28.5 -6.5h57q9 0 11.5 -2.5t0.5 -10.5 l-6 -26q-3 -13 -16 -13h-237q-15 0 -11 15l5 24q2 13 17 13h36q22 0 31.5 6.5t13.5 26.5l76 360q4 21 -7 25.5t-59 4.5q-15 0 -12 13l5 23q2 9 5.5 12t13.5 4l117 7q13 0 16.5 -6.5t0.5 -21.5z" />
<glyph unicode="s" horiz-adv-x="477" d="M478 419q-5 -20 -21 -33.5t-35 -13.5t-29 12.5t-6 32.5q6 29 31 42q-31 36 -114 36q-107 0 -126 -87q-6 -30 6.5 -50.5t37 -31t55 -19t60 -20t52.5 -28t33 -48t0 -75.5q-16 -73 -73 -111t-145 -38q-89 0 -138.5 33t-35.5 93q4 22 19.5 35.5t35.5 13.5t29 -12.5t5 -33.5 q-6 -27 -29 -40q32 -39 121 -39q60 0 100 25.5t50 73.5q10 43 -15.5 67.5t-67.5 36t-83.5 26t-66 49.5t-12.5 94q14 65 62.5 100t127.5 35q98 0 141.5 -33t30.5 -92z" />
<glyph unicode="t" horiz-adv-x="340" d="M104 526h68l44 122q5 16 31 16q15 0 17.5 -3t0.5 -13l-26 -122h130q9 0 12 -2t2 -9l-6 -30q-3 -13 -18 -13h-131l-68 -317q-13 -64 2.5 -85t56.5 -21t71 13q9 4 12 1.5t1 -10.5l-6 -28q-3 -13 -18 -18q-35 -13 -77 -13q-143 0 -112 144l71 334h-66q-10 0 -12.5 2.5 t-0.5 11.5l5 25q3 15 17 15z" />
<glyph unicode="u" d="M485 91q-9 -42 22 -42q15 0 37 6q8 2 11.5 0.5t1.5 -9.5l-5 -26q-3 -12 -17 -17q-25 -7 -57 -7q-73 0 -65 72q-71 -77 -188 -77q-84 0 -116.5 42.5t-12.5 140.5l58 271q4 21 -7 25.5t-60 4.5q-14 0 -11 13l5 23q2 9 5.5 12t13.5 4l117 7q13 0 16.5 -6.5t0.5 -21.5 l-71 -336q-26 -123 85 -123q77 0 129.5 50.5t71.5 141.5l45 212q2 16 -10.5 20t-57.5 4q-15 0 -12 13l5 23q2 9 5.5 12t13.5 4l117 7q14 0 17.5 -6t0.5 -22z" />
<glyph unicode="v" horiz-adv-x="567" d="M210 442l46 -385l214 391q9 15 2 20.5t-38 6.5h-12q-14 0 -11 12l5 25q2 9 5 11.5t11 2.5h186q14 0 11 -12l-5 -23q-2 -10 -5.5 -13t-12.5 -3l-20 -1q-23 0 -31.5 -4t-19.5 -23l-247 -440q-4 -7 -6 -9.5t-6.5 -4t-12.5 -1.5h-44q-16 0 -17 14l-60 438q-3 20 -9.5 24.5 t-30.5 6.5h-16q-13 1 -11 13l6 26q2 12 16 12h182q8 0 10 -3t1 -10l-6 -25q-2 -13 -18 -13h-15q-26 0 -34.5 -7t-6.5 -26z" />
<glyph unicode="w" horiz-adv-x="884" d="M217 443l30 -392l226 448q10 19 13.5 23t13.5 4h40q9 0 11 -5t4 -24l34 -444l186 372q17 36 17 42.5t-20 7.5h-38q-14 1 -11 12l5 25q2 9 5.5 11.5t11.5 2.5h195q8 0 10 -2t0 -8l-5 -25q-4 -16 -16 -16l-37 -1q-19 -1 -27 -8.5t-29 -48.5l-214 -410q-5 -10 -10.5 -12.5 t-23.5 -2.5h-40q-17 0 -18 14l-39 422l-212 -421q-4 -7 -6 -9.5t-6.5 -4t-12.5 -1.5h-47q-15 0 -16 14l-45 435q-2 22 -11.5 27.5t-42.5 5.5q-10 1 -12.5 3.5t-0.5 11.5l6 25q2 12 15 12h189q11 0 10 -12l-6 -25q-2 -14 -14 -14q-48 -1 -56 -5t-6 -27z" />
<glyph unicode="x" horiz-adv-x="563" d="M116 105l152 158l-97 183q-11 19 -20 24t-31 5h-22q-13 0 -11 14l6 24q2 13 16 13h192q8 0 10 -2.5t0 -11.5l-5 -24q-2 -13 -15 -13h-21q-28 0 -31 -4.5t8 -26.5l69 -132l129 135q19 20 17 24t-25 4h-17q-13 0 -10 13l5 24q3 14 17 14h170q8 0 10 -2.5t0 -11.5l-5 -25 q-3 -12 -17 -12h-23q-21 -1 -35.5 -10.5t-56.5 -51.5l-136 -144l82 -157q20 -39 30 -49t28 -11h32q8 0 10 -2.5t0 -10.5l-6 -25q-2 -14 -17 -14h-182q-8 0 -11 3t-1 12l4 21q4 16 19 16q38 0 43.5 4.5t-4.5 24.5l-75 138l-126 -133q-16 -17 -19 -24t1 -8.5t20 -1.5h24 q13 0 10 -12l-6 -26q-2 -14 -15 -14h-188q-8 0 -10.5 2.5t-1.5 11.5l4 23q4 15 16 15h33q34 1 83 53z" />
<glyph unicode="y" d="M465 -10q-25 -122 -102 -180.5t-193 -58.5q-79 0 -127.5 31.5t-33.5 101.5q4 21 20.5 35t35.5 14q18 0 29 -13t6 -34q-6 -30 -34 -42q26 -39 117 -39q82 0 138.5 44.5t75.5 133.5l18 84q-73 -76 -188 -76q-84 0 -116.5 42.5t-12.5 140.5l58 271q4 21 -7 25.5t-60 4.5 q-14 0 -11 13l5 23q2 9 5.5 12t13.5 4l117 7q13 0 16.5 -6.5t0.5 -21.5l-71 -336q-26 -123 85 -123q75 0 127 48t72 135l48 222q1 16 -12 19.5t-57 3.5q-15 0 -12 13l5 23q2 9 5.5 12t13.5 4l117 7q14 0 17.5 -6t0.5 -22z" />
<glyph unicode="z" horiz-adv-x="499" d="M159 528h342q14 0 12 -13l-3 -16q-3 -13 -20 -32l-392 -415h216q33 0 45.5 14t44.5 89q6 11 17 11h29q11 0 7 -12l-48 -138q-6 -16 -24 -16h-372q-12 1 -10 14l6 25q2 13 8 19l398 419h-189q-29 0 -39.5 -12t-35.5 -72q-5 -12 -8.5 -15.5t-10.5 -3.5h-29q-12 0 -6 17 l37 121q6 16 25 16z" />
<glyph unicode="{" horiz-adv-x="313" d="M63 328q2 9 16 13q40 10 58 31.5t27 60.5l33 159q16 77 60.5 109.5t116.5 32.5h9q11 0 13.5 -2.5t1.5 -9.5l-5 -23q-2 -11 -19 -11q-90 -3 -109 -95l-36 -166q-20 -100 -96 -117v-2q68 -17 46 -117l-35 -166q-20 -95 69 -95q10 0 12.5 -2t1.5 -9l-5 -23q-2 -12 -20 -12 h-9q-72 0 -102 32.5t-14 109.5l34 159q8 39 -1 60.5t-45 31.5q-9 3 -10 7q-1 2 0 6z" />
<glyph unicode="|" horiz-adv-x="240" d="M272 723l-176 -831q-5 -19 -23 -20h-32q-17 0 -13 19l177 831q5 19 22 20h32q17 0 13 -19z" />
<glyph unicode="}" horiz-adv-x="313" d="M297 321l-5 -24q-2 -8 -16 -13q-41 -10 -58.5 -31t-25.5 -60l-36 -167q-15 -74 -58 -108t-101 -34h-6q-11 0 -14 2.5t-2 9.5l3 12q1 8 5 9.5t14 1.5q96 3 119 106l35 166q10 47 31.5 77t64.5 40v2q-39 10 -48.5 43.5t2.5 73.5l36 166q22 106 -74 106q-10 0 -13 1.5 t-2 9.5l3 12q2 12 21 12h6q58 0 86 -34t12 -108l-35 -167q-10 -35 -1 -58t46 -33l4 -1q3 -1 3 -1.5t2.5 -2t1.5 -3t0 -5.5z" />
<glyph unicode="~" horiz-adv-x="433" d="M322 292q56 0 71 54q4 9 13 9h33q10 0 7 -14q-23 -109 -141 -109q-66 0 -81 47q-9 26 -19 32q-12 6 -31 6q-56 0 -71 -54q-3 -10 -13 -10h-32q-7 0 -8.5 2t0.5 12q11 52 47 80.5t91 28.5q41 0 57.5 -14t24.5 -37q5 -17 15 -25t37 -8z" />
<glyph unicode="&#xa1;" horiz-adv-x="248" d="M56 43q6 29 48 176t83 342q2 12 23 12q12 0 16 -3t3 -9q-41 -195 -62 -342t-27 -176q-11 -53 -54 -53q-41 0 -30 53zM180 678q5 25 24.5 41.5t41.5 16.5t33.5 -14.5t5.5 -39.5q-5 -24 -24.5 -40t-41.5 -16t-33 14.5t-6 37.5z" />
<glyph unicode="&#xa2;" horiz-adv-x="529" d="M428 441q4 16 12 26q-29 24 -79 25q-88 0 -146 -61.5t-81 -169.5q-46 -219 144 -219q54 0 98 12q26 7 71 23q6 1 7.5 -1t0.5 -7l-6 -28q-2 -14 -21 -22q-64 -27 -133 -31l-15 -69q-3 -19 -22 -20h-32q-17 0 -13 19l15 71q-216 19 -162 273q27 124 99.5 199t182.5 82 l15 69q3 19 22 20h32q17 0 13 -19l-16 -73q73 -9 106 -54q16 -19 12 -43q-5 -24 -24.5 -39t-40.5 -15q-22 0 -33 14t-6 38z" />
<glyph unicode="&#xa3;" d="M487 563q6 28 35 44q-12 69 -114 71q-71 0 -122.5 -43t-70.5 -132q-4 -19 -5 -36.5t2.5 -38t5 -29t9 -33.5t8.5 -28h175q11 0 8 -10l-6 -31q-2 -10 -13 -10h-154q4 -36 -4 -66q-11 -54 -42.5 -99.5t-72.5 -69.5h270q52 0 67 9t30 49l23 72q8 14 23 14h19q16 0 12 -16 l-42 -133q-9 -32 -19 -39.5t-34 -7.5h-439q-12 0 -15 2.5t-2 11.5l6 25q3 13 19 13h6q100 45 124 158q8 38 1 77h-93q-12 0 -9 10l6 31q3 10 13 10h67q-8 23 -11.5 35.5t-7.5 34.5t-3 44.5t6 47.5q24 113 97 172.5t179 59.5q90 -1 137 -39t39 -111q2 -9 -1 -18 q-5 -25 -24 -38.5t-42 -13.5t-34.5 13.5t-6.5 37.5z" />
<glyph unicode="&#xa4;" horiz-adv-x="629" d="M316 170q-98 0 -147 54l-57 -47q-16 -13 -27 -1l-17 22q-10 12 6 26l65 53q-16 51 -2 122q19 87 71 142l-41 54q-11 14 4 27l27 22q15 13 25 -1l44 -56q64 37 145 37q71 0 118 -29l67 56q16 13 26 1l19 -23q9 -12 -7 -25l-62 -51q37 -59 18 -153q-18 -83 -69 -141l37 -46 q11 -14 -5 -27l-27 -23q-15 -11 -25 2l-37 46q-63 -41 -149 -41zM535 405q15 73 -21 121t-112 48q-77 0 -134 -48.5t-73 -121.5q-17 -85 17.5 -134.5t113.5 -49.5t135 50t74 135z" />
<glyph unicode="&#xa5;" horiz-adv-x="710" d="M327 259l-101 370q-12 40 -41 40h-28q-13 0 -16.5 3.5t-1.5 13.5l5 22q2 9 6.5 11.5t17.5 2.5h190q14 0 17.5 -3t0.5 -15l-3 -14q-2 -11 -7.5 -15.5t-18.5 -4.5h-25q-9 0 -13 -1t-10 -7.5t1 -21.5l79 -316l243 316q10 15 5.5 22t-14.5 7h-26q-24 0 -19 21l4 18 q2 9 7 11.5t19 2.5h178q13 0 17.5 -3.5t2.5 -10.5l-5 -22q-2 -10 -7 -13.5t-19 -3.5h-30q-22 0 -51 -37l-286 -365l-38 -182q-4 -20 2.5 -26.5t26.5 -6.5h35q9 0 11 -2.5t0 -10.5l-5 -24q-3 -15 -17 -15h-210q-16 0 -13 14l6 24q3 14 18 14h34q21 0 29.5 8t13.5 33z" />
<glyph unicode="&#xa6;" horiz-adv-x="243" d="M205 722q5 19 22 20h32q17 0 13 -19l-70 -332q-5 -19 -23 -20h-32q-17 0 -13 19zM89 -139q-5 -19 -22 -20h-32q-17 0 -13 19l68 322q5 19 22 20h32q19 0 13 -19z" />
<glyph unicode="&#xa7;" horiz-adv-x="490" d="M36 117q4 21 21.5 35t36.5 14q18 0 28.5 -12.5t6.5 -34.5q-7 -30 -37 -44q15 -20 45 -30.5t60 -10.5q57 0 98.5 24.5t52.5 73.5q6 29 -12 48.5t-49 27.5t-67.5 18.5t-67 23t-46.5 40.5t-7 70q22 103 123 132q-71 35 -56 109q15 68 68.5 102t134.5 34q93 0 127 -32t24 -76 l-11 -1q-6 -18 -22.5 -29.5t-33.5 -11.5q-19 0 -28.5 12.5t-5.5 33.5q4 19 20 35q-34 21 -81 21q-109 0 -126 -81q-7 -33 19.5 -52.5t68.5 -30t83.5 -23t66 -43t13.5 -79.5q-20 -98 -108 -141q54 -34 40 -100q-16 -77 -79 -115t-151 -38q-75 0 -119.5 35t-32.5 89h2z M415 373q9 43 -40 67q-43 16 -83 16q-109 0 -128 -90q-4 -21 2 -36t26.5 -26t35 -15.5t47.5 -13.5q17 -5 26 -7q33 0 67.5 24.5t46.5 80.5z" />
<glyph unicode="&#xa8;" horiz-adv-x="523" d="M146 654q4 22 22 37t37 15q20 0 30 -13.5t5 -35.5q-4 -21 -21.5 -35t-37.5 -14t-29.5 12.5t-5.5 33.5zM304 654q4 22 22.5 37t37.5 15q20 0 30 -13.5t5 -35.5q-4 -21 -22 -35t-38 -14q-19 0 -29 12.5t-6 33.5z" />
<glyph unicode="&#xa9;" horiz-adv-x="837" d="M379 -13q-179 0 -253 106t-39 272q35 164 156.5 268t295.5 104t250.5 -104t41.5 -267q-35 -168 -154 -273.5t-298 -105.5zM776 370q31 145 -36 233.5t-210 88.5t-249 -89t-137 -234q-33 -152 33 -244.5t212 -92.5t250 92.5t137 245.5zM520 562q80 0 116 -42l5 -6l2 -5 q4 -14 2 -24q-5 -22 -22 -36t-37 -14q-18 0 -28 12.5t-6 33.5q3 15 13 27q-23 10 -54 10q-70 0 -118 -43.5t-62 -108.5t15.5 -103.5t108.5 -38.5q53 0 110 25q23 9 26 9q12 0 9 -10l-3 -17q-4 -15 -20 -22q-63 -29 -139 -29q-97 0 -140.5 50.5t-26.5 130.5q18 88 86 144.5 t163 56.5z" />
<glyph unicode="&#xaa;" horiz-adv-x="432" d="M170 675q0 1 0.5 3l1 4t1.5 3q23 67 155 67q63 0 88.5 -27.5t9.5 -99.5l-32 -152q-2 -11 3 -18.5t15 -7.5q4 0 26 10q7 3 8.5 0.5t-0.5 -12.5l-4 -18q-2 -11 -17 -19q-20 -9 -36 -9q-47 0 -51 47q-43 -47 -121 -47q-59 0 -84.5 28.5t-14.5 81.5q24 117 255 117l3 15 q7 32 -8.5 50t-47.5 18q-36 0 -64 -7q4 -14 2 -24q-4 -20 -20.5 -33t-35.5 -13q-17 0 -26.5 12t-5.5 31zM172 509q-14 -62 58 -62q49 0 83 28t44 78l7 31q-176 0 -192 -75z" />
<glyph unicode="&#xab;" horiz-adv-x="741" d="M357 66q15 -15 12 -24q-3 -15 -22 -15h-31q-11 0 -23 9l-221 191q-17 14 -21 24t-1 26q4 16 12 26t31 24l303 191q14 9 27 9h31q19 0 15 -15q-2 -11 -23 -24l-336 -211zM657 66q15 -15 12 -24q-3 -15 -23 -15h-30q-11 0 -23 9l-221 191q-17 14 -21 24t-1 26q4 16 12 26 t31 24l303 191q14 9 27 9h30q8 0 13 -3.5t3 -11.5q-2 -11 -23 -24l-336 -211z" />
<glyph unicode="&#xac;" horiz-adv-x="571" d="M142 439h394q24 0 18 -22l-48 -226q-4 -17 -22 -17h-31q-7 0 -12 5t-3 12l39 184h-349q-25 0 -20 23l4 19q5 22 30 22z" />
<glyph unicode="&#xad;" horiz-adv-x="412" d="M113 339h257q9 0 11 -3.5t-1 -11.5l-4 -22q-2 -9 -5.5 -12t-11.5 -3h-257q-9 0 -11.5 3t-0.5 12l4 22q2 9 5.5 12t13.5 3z" />
<glyph unicode="&#xae;" horiz-adv-x="837" d="M379 -13q-179 0 -253 106t-39 272q35 164 156.5 268t295.5 104t250.5 -104t41.5 -267q-35 -168 -154 -273.5t-298 -105.5zM776 370q31 145 -36 233.5t-210 88.5t-249 -89t-137 -234q-33 -152 33 -244.5t212 -92.5t250 92.5t137 245.5zM375 495q4 19 -1.5 25t-25.5 6 q-10 0 -7 12l3 16q2 8 5 10.5t10 2.5h121q91 0 125 -25t20 -91q-17 -86 -105 -111q37 -27 44 -107q1 -20 21 -20q11 0 25 7q4 2 5.5 0t0.5 -10l-4 -19q-3 -12 -14 -17q-13 -8 -32 -8q-52 0 -55 46q-3 45 -22.5 82.5t-59.5 37.5h-36l-18 -87q-4 -20 0.5 -25.5t21.5 -5.5h2 q8 0 10 -2t1 -8l-4 -19q-4 -13 -16 -13h-115q-13 0 -9 13l4 19q1 10 14 10h2q29 0 36 31zM402 372h41q110 0 127 79q9 41 -14 58t-81 17h-41z" />
<glyph unicode="&#xaf;" horiz-adv-x="315" d="M362 642h-229q-16 0 -9 34q5 21 20 21h226q16 0 9 -30q-4 -25 -17 -25z" />
<glyph unicode="&#xb0;" horiz-adv-x="401" d="M254 431q-70 0 -103 45t-19 114q14 68 67 112.5t123 44.5q71 0 104.5 -44t18.5 -112q-14 -70 -67.5 -115t-123.5 -45zM395 590q11 52 -10.5 83.5t-71.5 31.5t-85 -31.5t-46 -83.5q-11 -53 10.5 -85t71.5 -32q48 0 84 32.5t47 84.5z" />
<glyph unicode="&#xb1;" horiz-adv-x="525" d="M364 520l-33 -157h168q16 0 10 -25q-3 -15 -8 -21t-17 -6h-164l-37 -171q-3 -17 -31 -17t-23 25l35 163h-163q-16 0 -9 28q3 16 9 20t19 4h155l34 161q4 17 32 17q15 0 20.5 -4.5t2.5 -16.5zM404 -9h-373q-12 0 -9 11l7 31q1 10 13 10h373q10 0 9 -10l-7 -31 q-3 -11 -13 -11z" />
<glyph unicode="&#xb2;" horiz-adv-x="320" d="M138 727q2 9 5 13q12 37 52 59.5t96 22.5q63 0 90.5 -30.5t17.5 -76.5q-11 -59 -92 -124l-159 -132h122q23 0 32 5.5t17 23.5l12 37q5 9 14 9h19q9 0 6 -10l-26 -87q-4 -11 -8 -14t-14 -3h-237q-13 0 -9 13l2 13q4 15 29 34l172 143q52 45 62 89q6 31 -9 49.5t-54 18.5 q-44 0 -75 -20q15 -10 10 -32q-4 -17 -17.5 -27.5t-29.5 -10.5q-15 0 -23.5 10t-4.5 27z" />
<glyph unicode="&#xb3;" horiz-adv-x="318" d="M146 735q8 40 47 64t96 24q58 0 84.5 -27.5t16.5 -75.5q-17 -78 -88 -90q39 -3 59 -28.5t10 -71.5q-12 -57 -59.5 -87t-116.5 -30q-76 0 -112 17q-5 4 -4 11l6 28q1 8 7 8q1 0 16 -5q48 -14 88 -14q99 0 114 73q8 40 -13.5 57.5t-60.5 17.5h-15q-7 0 -8.5 2t0.5 9l5 26 q2 8 13 8h15q74 0 88 65q13 64 -58 64q-34 0 -61 -16q9 -9 6 -28q-4 -17 -17 -27t-29 -10t-24.5 9.5t-4.5 26.5z" />
<glyph unicode="&#xb4;" horiz-adv-x="276" d="M138 643l-3 11q-4 12 13 19l145 70q22 10 28 1l12 -30q7 -12 -14 -20l-156 -54q-22 -8 -25 3z" />
<glyph unicode="&#xb5;" horiz-adv-x="636" d="M268 47q78 0 130 50.5t71 141.5l32 148h-3l12 58q4 21 -7 25.5t-60 4.5q-14 0 -11 13l5 23q2 9 5.5 12t13.5 4l117 7q13 0 16.5 -6.5t0.5 -21.5l-9 -43h3l-78 -365h-1l-1 -7q-9 -42 23 -42q13 0 37 6q8 2 11 0.5t1 -9.5l-5 -26q-3 -12 -16 -17q-27 -7 -57 -7 q-73 0 -67 69q-70 -74 -185 -74q-65 0 -98 23l-46 -220q-2 -10 -10 -10h-51q-9 0 -6 9l135 639h2l3 13q4 21 -7 25.5t-60 4.5q-15 0 -12 13l5 23q4 15 20 16l116 7q14 0 17.5 -6t0.5 -22l-71 -336q-26 -123 84 -123z" />
<glyph unicode="&#xb6;" horiz-adv-x="528" d="M145 -91l96 449q-74 1 -113 48.5t-22 126.5q17 83 78 136t138 53h270q16 0 13 -14l-5 -22q-3 -16 -18 -16q-45 0 -59.5 -7t-20.5 -34l-153 -719q-2 -9 -9 -9h-42q-8 0 -6 8l162 761h-89l-162 -761q0 -8 -8 -8h-46q-6 0 -4 8z" />
<glyph unicode="&#xb7;" horiz-adv-x="228" d="M79 259q5 24 25 41t42 17q21 0 33 -14.5t6 -39.5q-5 -25 -25 -40.5t-43 -15.5q-21 0 -32 14t-6 38z" />
<glyph unicode="&#xb8;" horiz-adv-x="291" d="M13 -67l52 76l46 -1l-26 -44q46 6 70 -13t15 -63q-19 -90 -137 -90q-37 0 -70 6q-7 1 -4 13l3 18q2 9 4 10.5t7 0.5q46 -7 66 -7q68 0 78 48q9 38 -42 38q-10 0 -30.5 -2t-25.5 -2q-14 0 -6 12z" />
<glyph unicode="&#xb9;" horiz-adv-x="209" d="M148 482l58 271q2 8 -0.5 10t-12.5 -2l-38 -12q-6 -1 -8 1t-1 6l6 25q1 8 13 12l77 24q14 3 21 3q12 0 8 -16l-68 -322q-3 -15 3 -18.5t33 -3.5h12q11 0 8 -10l-4 -19q-2 -11 -12 -11h-161q-6 0 -7.5 2t-0.5 9l4 19q3 10 12 10h11q27 0 35.5 4t11.5 18z" />
<glyph unicode="&#xba;" horiz-adv-x="394" d="M123 534q16 79 64.5 131t124.5 52q75 0 101 -52t10 -131q-17 -79 -65 -131t-124 -52t-102 52t-9 131zM303 674q-50 0 -82 -38t-45 -103q-14 -62 2 -100.5t65 -38.5t80.5 38t45.5 101q29 141 -66 141z" />
<glyph unicode="&#xbb;" horiz-adv-x="741" d="M42 66l335 211l-246 211q-15 15 -13 24q4 15 23 15h31q11 0 23 -9l221 -191q17 -14 21 -24t0 -26q-3 -16 -11 -26t-31 -24l-303 -191q-14 -9 -27 -9h-31q-8 0 -12.5 3.5t-3.5 11.5q3 11 24 24zM342 66l335 211l-246 211q-15 15 -13 24q4 15 23 15h31q11 0 23 -9l221 -191 q17 -14 21 -24t0 -26q-3 -16 -11 -26t-31 -24l-303 -191q-14 -9 -27 -9h-31q-8 0 -12.5 3.5t-3.5 11.5q3 11 24 24z" />
<glyph unicode="&#xbc;" horiz-adv-x="635" d="M20 50l617 685q14 17 27 14q6 -1 14.5 -8t8.5 -14q5 -9 -13 -29l-618 -684q-15 -19 -30 -11q-7 2 -13 8t-5 13q-3 8 12 26zM406 2q-11 0 -8 9l5 22q1 9 11 9h13q13 0 18.5 5t9.5 20l4 18h-165q-7 0 -8.5 1.5t-0.5 8.5l4 18q0 7 3 9l249 268q9 9 19 9h38q16 0 0 -18 l-240 -257h109l16 75q2 8 10 8h40q9 0 7 -8l-16 -75h44q7 0 8.5 -1.5t0.5 -6.5l-5 -22q-2 -9 -11 -9h-45l-4 -18q-4 -16 0 -20.5t17 -4.5h14q9 0 8 -9l-5 -21q-1 -10 -11 -10h-129zM178 482l58 271q2 8 -0.5 10t-12.5 -2l-38 -12q-6 -1 -8 1t-1 6l6 25q1 8 13 12l77 24 q14 3 21 3q12 0 8 -16l-68 -322q-3 -15 3 -18.5t33 -3.5h12q11 0 8 -10l-4 -19q-2 -11 -12 -11h-161q-6 0 -7.5 2t-0.5 9l4 19q3 10 12 10h11q27 0 35.5 4t11.5 18z" />
<glyph unicode="&#xbd;" horiz-adv-x="741" d="M178 482l58 271q2 8 -0.5 10t-12.5 -2l-38 -12q-6 -1 -8 1t-1 6l6 25q1 8 13 12l77 24q14 3 21 3q12 0 8 -16l-68 -322q-3 -15 3 -18.5t33 -3.5h12q11 0 8 -10l-4 -19q-2 -11 -12 -11h-161q-6 0 -7.5 2t-0.5 9l4 19q3 10 12 10h11q27 0 35.5 4t11.5 18zM417 307q2 9 5 13 q12 37 52 59.5t96 22.5q63 0 90.5 -30.5t17.5 -76.5q-13 -60 -92 -124l-159 -132h122q23 0 32 5.5t17 23.5l12 37q4 9 14 9h19q9 0 6 -10l-26 -87q-4 -11 -8 -14t-14 -3h-237q-7 0 -9 2.5t-1 10.5l3 13q4 14 28 34l173 143q52 45 62 89q6 31 -9 49.5t-54 18.5q-44 0 -75 -20 q15 -11 10 -32q-4 -17 -17.5 -27.5t-29.5 -10.5q-15 0 -23.5 10t-4.5 27zM20 50l617 685q14 17 27 14q6 -1 14.5 -8t8.5 -14q5 -9 -13 -29l-618 -684q-15 -19 -30 -11q-7 2 -13 8t-5 13q-3 8 12 26z" />
<glyph unicode="&#xbe;" horiz-adv-x="699" d="M72 50l617 685q14 17 27 14q6 -1 14.5 -8t8.5 -14q5 -9 -13 -29l-618 -684q-15 -19 -30 -11q-7 2 -13 8t-5 13q-3 8 12 26zM429 122h109l16 75q2 8 11 8h40q8 0 6 -8l-16 -75h44q7 0 9 -1.5t1 -6.5l-5 -22q-2 -9 -12 -9h-45l-4 -18q-3 -16 1 -20.5t17 -4.5h14q9 0 7 -9 l-4 -21q-3 -10 -11 -10h-129q-10 0 -9 9l5 22q2 9 12 9h13q13 0 18.5 5t8.5 20l4 18h-165q-7 0 -8.5 1.5t-0.5 8.5l4 18q2 8 4 9l249 268q8 9 19 9h38q16 0 0 -18zM133 735q8 40 47 64t96 24q58 0 84.5 -27.5t16.5 -75.5q-17 -78 -88 -90q39 -3 59 -28.5t10 -71.5 q-12 -57 -59.5 -87t-116.5 -30q-76 0 -112 17q-5 4 -4 11l6 28q1 8 7 8q1 0 16 -5q48 -14 88 -14q99 0 114 73q8 40 -13.5 57.5t-60.5 17.5h-15q-7 0 -8.5 2t0.5 9l5 26q2 8 13 8h15q74 0 88 65q13 64 -58 64q-34 0 -61 -16q9 -9 6 -28q-4 -17 -17 -27t-29 -10t-24.5 9.5 t-4.5 26.5z" />
<glyph unicode="&#xbf;" horiz-adv-x="499" d="M106 179q-12 -54 16 -92t97 -38q54 0 96.5 21t65.5 55q-29 10 -21 48q5 24 24.5 38.5t41.5 14.5t33.5 -14t6.5 -38t-24 -38t-42 -14q-10 0 -19 3q14 20 21 45h63q-15 -67 -83.5 -121t-178.5 -54q-98 0 -142 51t-27 129q11 54 42.5 100.5t69 78.5t74.5 61t65.5 62t35.5 67 l2 10q3 16 23 16h24q24 0 18 -28q-9 -40 -38 -77t-65 -66t-73 -59.5t-66.5 -72t-39.5 -88.5zM325 628q5 24 24 38.5t41 14.5t34 -14t7 -38t-24 -38t-42 -14q-22 0 -33.5 13.5t-6.5 37.5z" />
<glyph unicode="&#xc0;" horiz-adv-x="681" d="M504 97l-17 147h-273l-81 -152q-12 -25 -7.5 -32t29.5 -8h18q13 -1 15.5 -4t0.5 -13l-4 -20q-2 -10 -6.5 -12.5t-15.5 -2.5h-178q-14 0 -12 14l5 22q4 16 18 16l32 1q13 0 21 7t24 35l335 618l5 7.5t4.5 4t7.5 3t11 0.5h44q16 0 19 -14l74 -614q5 -32 11 -39.5t30 -7.5 l22 -1q13 0 15.5 -2.5t0.5 -12.5l-4 -22q-2 -10 -5.5 -12.5t-16.5 -2.5h-188q-12 0 -15 2.5t-2 11.5l5 22q2 9 6.5 12t17.5 3h18q33 1 37 17q2 12 -1 29zM439 662l-197 -367h239zM489 820l-8 -12q-7 -11 -25 -3l-130 52q-21 9 -9 22l25 32q9 10 27 -1l118 -70q12 -7 2 -20z " />
<glyph unicode="&#xc1;" horiz-adv-x="681" d="M504 97l-17 147h-273l-81 -152q-12 -25 -7.5 -32t29.5 -8h18q13 -1 15.5 -4t0.5 -13l-4 -20q-2 -10 -6.5 -12.5t-15.5 -2.5h-178q-14 0 -12 14l5 22q4 16 18 16l32 1q13 0 21 7t24 35l335 618l5 7.5t4.5 4t7.5 3t11 0.5h44q16 0 19 -14l74 -614q5 -32 11 -39.5t30 -7.5 l22 -1q13 0 15.5 -2.5t0.5 -12.5l-4 -22q-2 -10 -5.5 -12.5t-16.5 -2.5h-188q-12 0 -15 2.5t-2 11.5l5 22q2 9 6.5 12t17.5 3h18q33 1 37 17q2 12 -1 29zM439 662l-197 -367h239zM430 803l-3 11q-4 12 13 19l145 70q22 10 28 1l12 -30q7 -12 -14 -20l-156 -54q-22 -8 -25 3z " />
<glyph unicode="&#xc2;" horiz-adv-x="681" d="M504 97l-17 147h-273l-81 -152q-12 -25 -7.5 -32t29.5 -8h18q13 -1 15.5 -4t0.5 -13l-4 -20q-2 -10 -6.5 -12.5t-15.5 -2.5h-178q-14 0 -12 14l5 22q4 16 18 16l32 1q13 0 21 7t24 35l335 618l5 7.5t4.5 4t7.5 3t11 0.5h44q16 0 19 -14l74 -614q5 -32 11 -39.5t30 -7.5 l22 -1q13 0 15.5 -2.5t0.5 -12.5l-4 -22q-2 -10 -5.5 -12.5t-16.5 -2.5h-188q-12 0 -15 2.5t-2 11.5l5 22q2 9 6.5 12t17.5 3h18q33 1 37 17q2 12 -1 29zM439 662l-197 -367h239zM544 798l-60 71l-89 -71q-15 -13 -30 -13h-31q-5 0 -7 3t0 7t6 7l126 102q15 14 36 14 q14 0 19 -2t13 -12l82 -102q4 -4 1 -10.5t-11 -6.5h-31q-12 0 -24 13z" />
<glyph unicode="&#xc3;" horiz-adv-x="681" d="M504 97l-17 147h-273l-81 -152q-12 -25 -7.5 -32t29.5 -8h18q13 -1 15.5 -4t0.5 -13l-4 -20q-2 -10 -6.5 -12.5t-15.5 -2.5h-178q-14 0 -12 14l5 22q4 16 18 16l32 1q13 0 21 7t24 35l335 618l5 7.5t4.5 4t7.5 3t11 0.5h44q16 0 19 -14l74 -614q5 -32 11 -39.5t30 -7.5 l22 -1q13 0 15.5 -2.5t0.5 -12.5l-4 -22q-2 -10 -5.5 -12.5t-16.5 -2.5h-188q-12 0 -15 2.5t-2 11.5l5 22q2 9 6.5 12t17.5 3h18q33 1 37 17q2 12 -1 29zM439 662l-197 -367h239zM524 846q29 0 38 34q2 7 10 7h27q9 0 6 -9q-17 -80 -90 -80q-44 0 -52 27l-1 3q-1 4 -1.5 4.5 t-2 3.5t-2.5 3.5t-3.5 2t-5.5 2t-7 0.5q-28 0 -36 -34q-4 -8 -11 -8h-26q-8 0 -6 10q8 38 31.5 58.5t58.5 20.5q17 0 27.5 -5.5t13 -10t7.5 -14.5q6 -15 25 -15z" />
<glyph unicode="&#xc4;" horiz-adv-x="681" d="M504 97l-17 147h-273l-81 -152q-12 -25 -7.5 -32t29.5 -8h18q13 -1 15.5 -4t0.5 -13l-4 -20q-2 -10 -6.5 -12.5t-15.5 -2.5h-178q-14 0 -12 14l5 22q4 16 18 16l32 1q13 0 21 7t24 35l335 618l5 7.5t4.5 4t7.5 3t11 0.5h44q16 0 19 -14l74 -614q5 -32 11 -39.5t30 -7.5 l22 -1q13 0 15.5 -2.5t0.5 -12.5l-4 -22q-2 -10 -5.5 -12.5t-16.5 -2.5h-188q-12 0 -15 2.5t-2 11.5l5 22q2 9 6.5 12t17.5 3h18q33 1 37 17q2 12 -1 29zM439 662l-197 -367h239zM354 843q4 22 22 37t37 15q20 0 30 -13.5t5 -35.5q-4 -21 -21.5 -35t-37.5 -14t-29.5 12.5 t-5.5 33.5zM512 843q4 22 22.5 37t37.5 15q20 0 30 -13.5t5 -35.5q-4 -21 -22 -35t-38 -14q-19 0 -29 12.5t-6 33.5z" />
<glyph unicode="&#xc5;" horiz-adv-x="681" d="M504 97l-17 147h-273l-81 -152q-12 -25 -7.5 -32t29.5 -8h18q13 -1 15.5 -4t0.5 -13l-4 -20q-2 -10 -6.5 -12.5t-15.5 -2.5h-178q-14 0 -12 14l5 22q4 16 18 16l32 1q13 0 21 7t24 35l335 618l5 7.5t4.5 4t7.5 3t11 0.5h44q16 0 19 -14l74 -614q5 -32 11 -39.5t30 -7.5 l22 -1q13 0 15.5 -2.5t0.5 -12.5l-4 -22q-2 -10 -5.5 -12.5t-16.5 -2.5h-188q-12 0 -15 2.5t-2 11.5l5 22q2 9 6.5 12t17.5 3h18q33 1 37 17q2 12 -1 29zM439 662l-197 -367h239zM467 789q-47 0 -70.5 22.5t-15.5 59.5q7 37 40.5 59.5t80.5 22.5t71 -22.5t17 -59.5 q-8 -37 -42 -59.5t-81 -22.5zM474 823q23 0 42.5 13t24.5 35q4 22 -9 35t-37 13q-23 0 -42 -13t-23 -35q-5 -22 8 -35t36 -13z" />
<glyph unicode="&#xc6;" horiz-adv-x="934" d="M695 330h-150l-59 -278h235q52 0 67.5 9t29.5 49l23 72q7 14 24 14h18q16 0 12 -16l-42 -133q-9 -32 -19 -39.5t-34 -7.5h-464q-8 0 -11 3t-2 11l5 22q4 16 18 16q46 0 59.5 7t19.5 34l32 151h-233l-89 -145q-14 -21 -15 -31q-2 -9 4.5 -12t25.5 -4h22q15 0 11 -18 l-4 -17q-4 -17 -18 -17h-183q-9 0 -11 2.5t-1 12.5l5 23q1 8 4 11t13 4h31q15 0 25 8.5t33 45.5l355 573q20 30 29.5 36t39.5 6h434q28 0 34 -7t1 -40l-14 -97q-2 -16 -4.5 -20t-14.5 -4h-21q-12 0 -14.5 3.5t-1.5 18.5l6 47q4 33 -9.5 40t-63.5 7h-216l-61 -288h150 q23 0 32 28l10 42q2 9 5.5 11.5t15.5 2.5h16q15 0 11 -16l-40 -190q-4 -16 -19 -16h-16q-10 0 -13.5 3t-1.5 11l7 42q5 30 -18 30zM477 650l-221 -354h212l80 373h-42q-19 0 -29 -19z" />
<glyph unicode="&#xc7;" horiz-adv-x="674" d="M276 -69l41 60q-142 12 -205 104.5t-27 265.5q35 165 147.5 267.5t276.5 102.5q121 0 171.5 -53t35.5 -122q-6 -24 -25 -38t-41 -14q-23 0 -34.5 13.5t-6.5 37.5q4 20 19 33.5t34 17.5q-32 71 -159 71q-140 0 -229 -93t-120 -236q-29 -138 22.5 -220t197.5 -82 q110 0 234 54q10 6 15.5 5t2.5 -12l-6 -33q-1 -11 -20 -20q-92 -50 -237 -51l-16 -27q47 6 70.5 -13t14.5 -63q-19 -90 -137 -90q-32 0 -71 6q-6 2 -4 13l4 18q2 8 4 10t7 1q46 -7 67 -7q68 0 78 48q4 21 -8 29.5t-35 8.5q-10 0 -30.5 -2t-25.5 -2q-14 0 -5 12z" />
<glyph unicode="&#xc8;" horiz-adv-x="610" d="M20 0q-8 0 -11 3t-2 11l5 22q4 16 18 16q46 0 59.5 7t19.5 34l116 544q7 32 -19 33h-45q-7 0 -10 2.5t-1 11.5l5 24q2 9 5.5 11.5t14.5 2.5h436q28 0 34 -7t2 -40l-15 -97q-2 -15 -5 -19.5t-15 -4.5h-20q-12 0 -14.5 3.5t-1.5 18.5l6 47q4 33 -9.5 40t-63.5 7h-208 l-61 -288h140q23 0 31 28l10 39q2 10 6 12.5t15 2.5h17q11 0 13.5 -3t0.5 -12l-40 -188q-3 -15 -17 -15h-20q-11 0 -14 3t-1 12l6 39q5 30 -18 30h-140l-59 -278h254q31 0 41 6.5t19 30.5l29 93q7 14 23 14h23q16 0 12 -16l-47 -156q-4 -16 -10.5 -20t-22.5 -4h-471z M466 820l-8 -12q-7 -11 -25 -3l-130 52q-21 9 -9 22l25 32q9 10 27 -1l118 -70q12 -7 2 -20z" />
<glyph unicode="&#xc9;" horiz-adv-x="610" d="M20 0q-8 0 -11 3t-2 11l5 22q4 16 18 16q46 0 59.5 7t19.5 34l116 544q7 32 -19 33h-45q-7 0 -10 2.5t-1 11.5l5 24q2 9 5.5 11.5t14.5 2.5h436q28 0 34 -7t2 -40l-15 -97q-2 -15 -5 -19.5t-15 -4.5h-20q-12 0 -14.5 3.5t-1.5 18.5l6 47q4 33 -9.5 40t-63.5 7h-208 l-61 -288h140q23 0 31 28l10 39q2 10 6 12.5t15 2.5h17q11 0 13.5 -3t0.5 -12l-40 -188q-3 -15 -17 -15h-20q-11 0 -14 3t-1 12l6 39q5 30 -18 30h-140l-59 -278h254q31 0 41 6.5t19 30.5l29 93q7 14 23 14h23q16 0 12 -16l-47 -156q-4 -16 -10.5 -20t-22.5 -4h-471z M408 803l-3 11q-4 12 13 19l145 70q22 10 28 1l12 -30q7 -12 -14 -20l-156 -54q-22 -8 -25 3z" />
<glyph unicode="&#xca;" horiz-adv-x="610" d="M20 0q-8 0 -11 3t-2 11l5 22q4 16 18 16q46 0 59.5 7t19.5 34l116 544q7 32 -19 33h-45q-7 0 -10 2.5t-1 11.5l5 24q2 9 5.5 11.5t14.5 2.5h436q28 0 34 -7t2 -40l-15 -97q-2 -15 -5 -19.5t-15 -4.5h-20q-12 0 -14.5 3.5t-1.5 18.5l6 47q4 33 -9.5 40t-63.5 7h-208 l-61 -288h140q23 0 31 28l10 39q2 10 6 12.5t15 2.5h17q11 0 13.5 -3t0.5 -12l-40 -188q-3 -15 -17 -15h-20q-11 0 -14 3t-1 12l6 39q5 30 -18 30h-140l-59 -278h254q31 0 41 6.5t19 30.5l29 93q7 14 23 14h23q16 0 12 -16l-47 -156q-4 -16 -10.5 -20t-22.5 -4h-471z M521 798l-60 71l-89 -71q-15 -13 -30 -13h-31q-5 0 -7 3t0 7t6 7l126 102q15 14 36 14q14 0 19 -2t13 -12l82 -102q4 -4 1 -10.5t-11 -6.5h-31q-12 0 -24 13z" />
<glyph unicode="&#xcb;" horiz-adv-x="610" d="M20 0q-8 0 -11 3t-2 11l5 22q4 16 18 16q46 0 59.5 7t19.5 34l116 544q7 32 -19 33h-45q-7 0 -10 2.5t-1 11.5l5 24q2 9 5.5 11.5t14.5 2.5h436q28 0 34 -7t2 -40l-15 -97q-2 -15 -5 -19.5t-15 -4.5h-20q-12 0 -14.5 3.5t-1.5 18.5l6 47q4 33 -9.5 40t-63.5 7h-208 l-61 -288h140q23 0 31 28l10 39q2 10 6 12.5t15 2.5h17q11 0 13.5 -3t0.5 -12l-40 -188q-3 -15 -17 -15h-20q-11 0 -14 3t-1 12l6 39q5 30 -18 30h-140l-59 -278h254q31 0 41 6.5t19 30.5l29 93q7 14 23 14h23q16 0 12 -16l-47 -156q-4 -16 -10.5 -20t-22.5 -4h-471z M331 843q4 22 22 37t37 15q20 0 30 -13.5t5 -35.5q-4 -21 -21.5 -35t-37.5 -14t-29.5 12.5t-5.5 33.5zM489 843q4 22 22.5 37t37.5 15q20 0 30 -13.5t5 -35.5q-4 -21 -22 -35t-38 -14q-19 0 -29 12.5t-6 33.5z" />
<glyph unicode="&#xcc;" horiz-adv-x="322" d="M222 629q5 25 0 33t-25 8h-36q-10 0 -12 2.5t0 12.5l5 22q3 15 18 15h209q9 0 11.5 -3t0.5 -12l-5 -22q-2 -10 -5 -12.5t-13 -2.5h-37q-20 0 -28 -7.5t-14 -33.5l-114 -536q-5 -25 1.5 -33t27.5 -8h35q9 0 11 -2.5t0 -10.5l-5 -24q-3 -15 -17 -15h-210q-16 0 -13 14l6 24 q2 8 5 11t13 3h34q20 0 29 8t14 33zM313 820l-8 -12q-7 -11 -25 -3l-130 52q-21 9 -9 22l25 32q9 10 27 -1l118 -70q12 -7 2 -20z" />
<glyph unicode="&#xcd;" horiz-adv-x="322" d="M222 629q5 25 0 33t-25 8h-36q-10 0 -12 2.5t0 12.5l5 22q3 15 18 15h209q9 0 11.5 -3t0.5 -12l-5 -22q-2 -10 -5 -12.5t-13 -2.5h-37q-20 0 -28 -7.5t-14 -33.5l-114 -536q-5 -25 1.5 -33t27.5 -8h35q9 0 11 -2.5t0 -10.5l-5 -24q-3 -15 -17 -15h-210q-16 0 -13 14l6 24 q2 8 5 11t13 3h34q20 0 29 8t14 33zM254 803l-3 11q-4 12 13 19l145 70q22 10 28 1l12 -30q7 -12 -14 -20l-156 -54q-22 -8 -25 3z" />
<glyph unicode="&#xce;" horiz-adv-x="322" d="M222 629q5 25 0 33t-25 8h-36q-10 0 -12 2.5t0 12.5l5 22q3 15 18 15h209q9 0 11.5 -3t0.5 -12l-5 -22q-2 -10 -5 -12.5t-13 -2.5h-37q-20 0 -28 -7.5t-14 -33.5l-114 -536q-5 -25 1.5 -33t27.5 -8h35q9 0 11 -2.5t0 -10.5l-5 -24q-3 -15 -17 -15h-210q-16 0 -13 14l6 24 q2 8 5 11t13 3h34q20 0 29 8t14 33zM368 798l-60 71l-89 -71q-15 -13 -30 -13h-31q-5 0 -7 3t0 7t6 7l126 102q15 14 36 14q14 0 19 -2t13 -12l82 -102q4 -4 1 -10.5t-11 -6.5h-31q-12 0 -24 13z" />
<glyph unicode="&#xcf;" horiz-adv-x="322" d="M222 629q5 25 0 33t-25 8h-36q-10 0 -12 2.5t0 12.5l5 22q3 15 18 15h209q9 0 11.5 -3t0.5 -12l-5 -22q-2 -10 -5 -12.5t-13 -2.5h-37q-20 0 -28 -7.5t-14 -33.5l-114 -536q-5 -25 1.5 -33t27.5 -8h35q9 0 11 -2.5t0 -10.5l-5 -24q-3 -15 -17 -15h-210q-16 0 -13 14l6 24 q2 8 5 11t13 3h34q20 0 29 8t14 33zM178 843q4 22 22 37t37 15q20 0 30 -13.5t5 -35.5q-4 -21 -21.5 -35t-37.5 -14t-29.5 12.5t-5.5 33.5zM336 843q4 22 22.5 37t37.5 15q20 0 30 -13.5t5 -35.5q-4 -21 -22 -35t-38 -14q-19 0 -29 12.5t-6 33.5z" />
<glyph unicode="&#xd0;" horiz-adv-x="717" d="M707 348q-73 -348 -459 -348h-228q-8 0 -11 3t-2 11l5 22q4 16 18 16q46 0 59.5 7t19.5 34l46 215h-70q-10 0 -9 11l7 31q1 10 13 10h70l59 277q7 32 -19 33h-44q-8 0 -11 2.5t-1 11.5l5 24q2 9 6 11.5t15 2.5h221q198 0 274.5 -93t35.5 -281zM458 308h-234l-54 -253h83 q166 0 258 73t126 232q34 161 -27 235t-227 74h-82l-66 -309h234q10 0 9 -10l-7 -31q-1 -11 -13 -11z" />
<glyph unicode="&#xd1;" horiz-adv-x="760" d="M61 52q21 0 30.5 5t12.5 20l120 563q2 18 -4.5 24t-25.5 6h-30q-10 0 -12 2.5t0 12.5l5 23q3 14 18 14h107q21 0 26 -15l256 -605l116 543q3 15 -3.5 20t-28.5 5h-33q-9 0 -11.5 2.5t-0.5 11.5l5 23q3 15 18 15h201q9 0 11.5 -2.5t0.5 -11.5l-5 -23q-3 -15 -18 -15h-32 q-22 0 -31 -5t-12 -20l-136 -637q-3 -16 -21 -16h-17q-19 0 -25 13l-264 609l-114 -537q-4 -15 3.5 -20t29.5 -5h33q9 0 11 -2t1 -12l-5 -23q-3 -15 -18 -15h-201q-9 0 -11.5 2.5t-1.5 11.5l5 23q3 15 19 15h32zM556 846q29 0 38 34q2 7 10 7h27q9 0 6 -9q-17 -80 -90 -80 q-44 0 -52 27l-1 3q-1 4 -1.5 4.5t-2 3.5t-2.5 3.5t-3.5 2t-5.5 2t-7 0.5q-28 0 -36 -34q-4 -8 -11 -8h-26q-8 0 -6 10q8 38 31.5 58.5t58.5 20.5q17 0 27.5 -5.5t13 -10t7.5 -14.5q6 -15 25 -15z" />
<glyph unicode="&#xd2;" horiz-adv-x="778" d="M84 371q11 53 31 102t54 97.5t78 83.5t107 57t138 22q78 0 136.5 -21.5t90.5 -58t50 -86t16 -104.5t-12 -114q-15 -67 -43.5 -127t-76 -115t-122 -87.5t-167.5 -32.5q-78 0 -136.5 21.5t-90.5 58t-50 86t-15.5 104.5t12.5 114zM494 679q-61 0 -113 -19.5t-88 -50.5 t-64.5 -74t-45 -85.5t-26.5 -88.5q-10 -45 -11.5 -87.5t9 -86t33.5 -75t67.5 -51.5t106.5 -20q63 0 116.5 20.5t89 52t63.5 75t44 84.5t25 85q9 45 11 87t-8.5 85.5t-33.5 75.5t-67.5 52.5t-107.5 20.5zM537 820l-8 -12q-7 -11 -25 -3l-130 52q-21 9 -9 22l25 32q9 10 27 -1 l118 -70q12 -7 2 -20z" />
<glyph unicode="&#xd3;" horiz-adv-x="778" d="M84 371q11 53 31 102t54 97.5t78 83.5t107 57t138 22q78 0 136.5 -21.5t90.5 -58t50 -86t16 -104.5t-12 -114q-15 -67 -43.5 -127t-76 -115t-122 -87.5t-167.5 -32.5q-78 0 -136.5 21.5t-90.5 58t-50 86t-15.5 104.5t12.5 114zM494 679q-61 0 -113 -19.5t-88 -50.5 t-64.5 -74t-45 -85.5t-26.5 -88.5q-10 -45 -11.5 -87.5t9 -86t33.5 -75t67.5 -51.5t106.5 -20q63 0 116.5 20.5t89 52t63.5 75t44 84.5t25 85q9 45 11 87t-8.5 85.5t-33.5 75.5t-67.5 52.5t-107.5 20.5zM479 803l-3 11q-4 12 13 19l145 70q22 10 28 1l12 -30q7 -12 -14 -20 l-156 -54q-22 -8 -25 3z" />
<glyph unicode="&#xd4;" horiz-adv-x="778" d="M84 371q11 53 31 102t54 97.5t78 83.5t107 57t138 22q78 0 136.5 -21.5t90.5 -58t50 -86t16 -104.5t-12 -114q-15 -67 -43.5 -127t-76 -115t-122 -87.5t-167.5 -32.5q-78 0 -136.5 21.5t-90.5 58t-50 86t-15.5 104.5t12.5 114zM494 679q-61 0 -113 -19.5t-88 -50.5 t-64.5 -74t-45 -85.5t-26.5 -88.5q-10 -45 -11.5 -87.5t9 -86t33.5 -75t67.5 -51.5t106.5 -20q63 0 116.5 20.5t89 52t63.5 75t44 84.5t25 85q9 45 11 87t-8.5 85.5t-33.5 75.5t-67.5 52.5t-107.5 20.5zM592 798l-60 71l-89 -71q-15 -13 -30 -13h-31q-5 0 -7 3t0 7t6 7 l126 102q15 14 36 14q14 0 19 -2t13 -12l82 -102q4 -4 1 -10.5t-11 -6.5h-31q-12 0 -24 13z" />
<glyph unicode="&#xd5;" horiz-adv-x="778" d="M84 371q11 53 31 102t54 97.5t78 83.5t107 57t138 22q78 0 136.5 -21.5t90.5 -58t50 -86t16 -104.5t-12 -114q-15 -67 -43.5 -127t-76 -115t-122 -87.5t-167.5 -32.5q-78 0 -136.5 21.5t-90.5 58t-50 86t-15.5 104.5t12.5 114zM494 679q-61 0 -113 -19.5t-88 -50.5 t-64.5 -74t-45 -85.5t-26.5 -88.5q-10 -45 -11.5 -87.5t9 -86t33.5 -75t67.5 -51.5t106.5 -20q63 0 116.5 20.5t89 52t63.5 75t44 84.5t25 85q9 45 11 87t-8.5 85.5t-33.5 75.5t-67.5 52.5t-107.5 20.5zM572 846q29 0 38 34q2 7 10 7h27q9 0 6 -9q-17 -80 -90 -80 q-44 0 -52 27l-1 3q-1 4 -1.5 4.5t-2 3.5t-2.5 3.5t-3.5 2t-5.5 2t-7 0.5q-28 0 -36 -34q-4 -8 -11 -8h-26q-8 0 -6 10q8 38 31.5 58.5t58.5 20.5q17 0 27.5 -5.5t13 -10t7.5 -14.5q6 -15 25 -15z" />
<glyph unicode="&#xd6;" horiz-adv-x="778" d="M84 371q11 53 31 102t54 97.5t78 83.5t107 57t138 22q78 0 136.5 -21.5t90.5 -58t50 -86t16 -104.5t-12 -114q-15 -67 -43.5 -127t-76 -115t-122 -87.5t-167.5 -32.5q-78 0 -136.5 21.5t-90.5 58t-50 86t-15.5 104.5t12.5 114zM494 679q-61 0 -113 -19.5t-88 -50.5 t-64.5 -74t-45 -85.5t-26.5 -88.5q-10 -45 -11.5 -87.5t9 -86t33.5 -75t67.5 -51.5t106.5 -20q63 0 116.5 20.5t89 52t63.5 75t44 84.5t25 85q9 45 11 87t-8.5 85.5t-33.5 75.5t-67.5 52.5t-107.5 20.5zM402 843q4 22 22 37t37 15q20 0 30 -13.5t5 -35.5q-4 -21 -21.5 -35 t-37.5 -14t-29.5 12.5t-5.5 33.5zM560 843q4 22 22.5 37t37.5 15q20 0 30 -13.5t5 -35.5q-4 -21 -22 -35t-38 -14q-19 0 -29 12.5t-6 33.5z" />
<glyph unicode="&#xd7;" horiz-adv-x="540" d="M302 313v-1l191 158q19 16 28.5 18t20.5 -10q13 -18 -15 -42l-199 -165l129 -165q18 -25 -3 -42q-17 -12 -25 -10t-20 18l-125 158v-1l-3 3l-4 -3l-191 -157q-18 -16 -28 -18t-21 10q-13 17 16 42l199 165l-129 165q-19 26 2 42q17 12 25.5 10t19.5 -18l125 -157l2 -4z " />
<glyph unicode="&#xd8;" horiz-adv-x="778" d="M164 -4l20 33q-53 32 -81.5 87.5t-30 119t11.5 135.5q11 53 31 102t54 97.5t78 83.5t107 57t138 22q67 0 124 -18l11 18q12 18 22 16l44 -9q11 -4 -2 -22l-18 -28q53 -32 81.5 -87.5t30 -119t-11.5 -134.5q-15 -67 -43.5 -127t-76 -115t-122 -87.5t-167.5 -32.5 q-70 0 -124 17l-16 -26q-6 -11 -10 -13.5t-10 -0.5l-41 11q-6 2 -6.5 5t7.5 16zM494 679q-61 0 -113 -19.5t-88 -50.5t-64.5 -74t-45 -85.5t-26.5 -88.5q-9 -53 -11 -103t16.5 -98t55.5 -77l367 582q-40 14 -91 14zM700 358q9 52 10.5 101.5t-16.5 98t-55 78.5l-367 -582 q41 -13 90 -13q63 0 116.5 20.5t89 52t63.5 75t44 84.5t25 85z" />
<glyph unicode="&#xd9;" horiz-adv-x="746" d="M348 53q196 0 243 218l77 360q4 24 -1 31.5t-25 7.5h-36q-9 0 -11.5 3t-0.5 12l5 22q3 15 18 15h202q9 0 12 -3t1 -12l-5 -22q-2 -10 -5.5 -12.5t-13.5 -2.5h-37q-20 0 -27.5 -7t-12.5 -32l-78 -365q-58 -273 -314 -273q-266 0 -209 270l78 366q5 25 0 33t-25 8h-36 q-10 0 -12 2.5t0 12.5l5 22q3 15 18 15h209q9 0 11.5 -3t0.5 -12l-5 -22q-2 -10 -5 -12.5t-13 -2.5h-37q-20 0 -28 -7.5t-14 -33.5l-76 -360q-23 -110 12.5 -163t134.5 -53zM525 820l-8 -12q-7 -11 -25 -3l-130 52q-21 9 -9 22l25 32q9 10 27 -1l118 -70q12 -7 2 -20z" />
<glyph unicode="&#xda;" horiz-adv-x="746" d="M348 53q196 0 243 218l77 360q4 24 -1 31.5t-25 7.5h-36q-9 0 -11.5 3t-0.5 12l5 22q3 15 18 15h202q9 0 12 -3t1 -12l-5 -22q-2 -10 -5.5 -12.5t-13.5 -2.5h-37q-20 0 -27.5 -7t-12.5 -32l-78 -365q-58 -273 -314 -273q-266 0 -209 270l78 366q5 25 0 33t-25 8h-36 q-10 0 -12 2.5t0 12.5l5 22q3 15 18 15h209q9 0 11.5 -3t0.5 -12l-5 -22q-2 -10 -5 -12.5t-13 -2.5h-37q-20 0 -28 -7.5t-14 -33.5l-76 -360q-23 -110 12.5 -163t134.5 -53zM467 803l-3 11q-4 12 13 19l145 70q22 10 28 1l12 -30q7 -12 -14 -20l-156 -54q-22 -8 -25 3z" />
<glyph unicode="&#xdb;" horiz-adv-x="746" d="M348 53q196 0 243 218l77 360q4 24 -1 31.5t-25 7.5h-36q-9 0 -11.5 3t-0.5 12l5 22q3 15 18 15h202q9 0 12 -3t1 -12l-5 -22q-2 -10 -5.5 -12.5t-13.5 -2.5h-37q-20 0 -27.5 -7t-12.5 -32l-78 -365q-58 -273 -314 -273q-266 0 -209 270l78 366q5 25 0 33t-25 8h-36 q-10 0 -12 2.5t0 12.5l5 22q3 15 18 15h209q9 0 11.5 -3t0.5 -12l-5 -22q-2 -10 -5 -12.5t-13 -2.5h-37q-20 0 -28 -7.5t-14 -33.5l-76 -360q-23 -110 12.5 -163t134.5 -53zM580 798l-60 71l-89 -71q-15 -13 -30 -13h-31q-5 0 -7 3t0 7t6 7l126 102q15 14 36 14q14 0 19 -2 t13 -12l82 -102q4 -4 1 -10.5t-11 -6.5h-31q-12 0 -24 13z" />
<glyph unicode="&#xdc;" horiz-adv-x="746" d="M348 53q196 0 243 218l77 360q4 24 -1 31.5t-25 7.5h-36q-9 0 -11.5 3t-0.5 12l5 22q3 15 18 15h202q9 0 12 -3t1 -12l-5 -22q-2 -10 -5.5 -12.5t-13.5 -2.5h-37q-20 0 -27.5 -7t-12.5 -32l-78 -365q-58 -273 -314 -273q-266 0 -209 270l78 366q5 25 0 33t-25 8h-36 q-10 0 -12 2.5t0 12.5l5 22q3 15 18 15h209q9 0 11.5 -3t0.5 -12l-5 -22q-2 -10 -5 -12.5t-13 -2.5h-37q-20 0 -28 -7.5t-14 -33.5l-76 -360q-23 -110 12.5 -163t134.5 -53zM390 843q4 22 22 37t37 15q20 0 30 -13.5t5 -35.5q-4 -21 -21.5 -35t-37.5 -14t-29.5 12.5 t-5.5 33.5zM548 843q4 22 22.5 37t37.5 15q20 0 30 -13.5t5 -35.5q-4 -21 -22 -35t-38 -14q-19 0 -29 12.5t-6 33.5z" />
<glyph unicode="&#xdd;" horiz-adv-x="622" d="M301 291l-109 338q-8 25 -15.5 32.5t-23.5 7.5h-28q-10 0 -12.5 3.5t-0.5 13.5l5 22q3 14 17 14h186q9 0 11.5 -2.5t0.5 -11.5l-4 -21q-2 -10 -6 -13.5t-13 -3.5h-26q-18 0 -22.5 -5t2.5 -25l85 -290l219 291q13 20 11.5 24.5t-18.5 4.5h-26q-9 0 -11.5 4t0.5 14l4 20 q3 14 18 14h175q13 0 10 -14l-4 -21q-2 -10 -6 -13.5t-13 -3.5h-28q-14 0 -22.5 -5.5t-28.5 -31.5l-254 -326l-47 -222q-4 -20 3 -26.5t27 -6.5h34q10 0 12 -2.5t0 -10.5l-5 -24q-3 -15 -18 -15h-209q-10 0 -12.5 3t-1.5 11l6 24q3 14 19 14h33q19 0 28 6.5t15 27.5z M410 803l-3 11q-4 12 13 19l145 70q22 10 28 1l12 -30q7 -12 -14 -20l-156 -54q-22 -8 -25 3z" />
<glyph unicode="&#xde;" horiz-adv-x="586" d="M576 300q-24 -114 -119 -176t-204 -62q-57 0 -111 13l-45 -214q-5 -19 -22 -20h-32q-17 0 -13 19l183 862q5 19 23 20h31q17 0 13 -19l-41 -194q55 6 104 6q128 0 192.5 -62t40.5 -173zM227 471l-72 -337q47 -18 107 -18q85 0 154.5 47t88.5 137q19 86 -30.5 132.5 t-136.5 46.5q-69 0 -111 -8z" />
<glyph unicode="&#xdf;" horiz-adv-x="602" d="M305 48q66 0 117.5 38.5t67.5 111.5q16 78 -25 118t-111 40h-65q-8 0 -5 11l7 34q2 7 3.5 9.5t7.5 2.5h63q46 0 94.5 31.5t62.5 97.5q13 63 -19.5 97.5t-97.5 34.5q-68 0 -117 -37t-62 -101l-158 -746q-4 -17 -25 -17h-27q-18 0 -15 16l158 746q19 88 84.5 142.5 t172.5 54.5q103 0 148.5 -50.5t25.5 -140.5q-13 -60 -52.5 -104t-85.5 -52q54 -11 90.5 -57t17.5 -136q-20 -97 -91.5 -147t-172.5 -50q-87 0 -136 23q-9 4 -6 16l5 26q2 10 4.5 12.5t8.5 2.5q3 0 21 -6.5t48.5 -13.5t63.5 -7z" />
<glyph unicode="&#xe0;" horiz-adv-x="593" d="M468 91q-9 -42 22 -42q14 0 38 6q8 2 11.5 0.5t1.5 -9.5l-5 -26q-3 -12 -17 -17q-27 -7 -57 -7q-82 0 -63 86l1 7q-69 -102 -194 -102q-96 0 -135 68t-12 199q28 130 107 209.5t193 79.5q73 0 129 -44l1 8q4 16 10 22t19 6l114 -8q15 -1 11 -15l-5 -27q-2 -10 -18 -12 h-45q-14 -2 -21 -7.5t-12 -25.5zM227 42q144 0 210 218l38 181q-40 47 -122 47q-88 0 -146 -71t-80 -173q-9 -53 -7.5 -98t29 -74.5t78.5 -29.5zM410 692l-8 -12q-8 -10 -26 -3l-130 52q-19 9 -8 22l25 32q8 11 27 -1l118 -70q12 -7 2 -20z" />
<glyph unicode="&#xe1;" horiz-adv-x="593" d="M468 91q-9 -42 22 -42q14 0 38 6q8 2 11.5 0.5t1.5 -9.5l-5 -26q-3 -12 -17 -17q-27 -7 -57 -7q-82 0 -63 86l1 7q-69 -102 -194 -102q-96 0 -135 68t-12 199q28 130 107 209.5t193 79.5q73 0 129 -44l1 8q4 16 10 22t19 6l114 -8q15 -1 11 -15l-5 -27q-2 -10 -18 -12 h-45q-14 -2 -21 -7.5t-12 -25.5zM227 42q144 0 210 218l38 181q-40 47 -122 47q-88 0 -146 -71t-80 -173q-9 -53 -7.5 -98t29 -74.5t78.5 -29.5zM352 675l-4 11q-3 12 13 19l146 70q22 10 27 1l13 -30q7 -12 -14 -20l-157 -54q-21 -8 -24 3z" />
<glyph unicode="&#xe2;" horiz-adv-x="593" d="M468 91q-9 -42 22 -42q14 0 38 6q8 2 11.5 0.5t1.5 -9.5l-5 -26q-3 -12 -17 -17q-27 -7 -57 -7q-82 0 -63 86l1 7q-69 -102 -194 -102q-96 0 -135 68t-12 199q28 130 107 209.5t193 79.5q73 0 129 -44l1 8q4 16 10 22t19 6l114 -8q15 -1 11 -15l-5 -27q-2 -10 -18 -12 h-45q-14 -2 -21 -7.5t-12 -25.5zM227 42q144 0 210 218l38 181q-40 47 -122 47q-88 0 -146 -71t-80 -173q-9 -53 -7.5 -98t29 -74.5t78.5 -29.5zM465 670l-60 71l-89 -71q-15 -13 -30 -13h-31q-8 0 -8 6t7 11l125 102q16 14 36 14q14 0 19.5 -2t12.5 -12l83 -102 q4 -4 1 -10.5t-11 -6.5h-31q-12 0 -24 13z" />
<glyph unicode="&#xe3;" horiz-adv-x="593" d="M468 91q-9 -42 22 -42q14 0 38 6q8 2 11.5 0.5t1.5 -9.5l-5 -26q-3 -12 -17 -17q-27 -7 -57 -7q-82 0 -63 86l1 7q-69 -102 -194 -102q-96 0 -135 68t-12 199q28 130 107 209.5t193 79.5q73 0 129 -44l1 8q4 16 10 22t19 6l114 -8q15 -1 11 -15l-5 -27q-2 -10 -18 -12 h-45q-14 -2 -21 -7.5t-12 -25.5zM227 42q144 0 210 218l38 181q-40 47 -122 47q-88 0 -146 -71t-80 -173q-9 -53 -7.5 -98t29 -74.5t78.5 -29.5zM445 718q29 0 37 34q4 7 11 7h27q7 0 6 -9q-17 -80 -90 -80q-44 0 -52 27l-1 3q-1 4 -1.5 4.5t-2 3.5t-2.5 3.5t-3.5 2t-5.5 2 t-7 0.5q-27 0 -37 -34q-3 -8 -10 -8h-26q-8 0 -6 10q8 38 31.5 58.5t58.5 20.5q17 0 27.5 -5.5t13 -10.5t6.5 -14q7 -15 26 -15z" />
<glyph unicode="&#xe4;" horiz-adv-x="593" d="M468 91q-9 -42 22 -42q14 0 38 6q8 2 11.5 0.5t1.5 -9.5l-5 -26q-3 -12 -17 -17q-27 -7 -57 -7q-82 0 -63 86l1 7q-69 -102 -194 -102q-96 0 -135 68t-12 199q28 130 107 209.5t193 79.5q73 0 129 -44l1 8q4 16 10 22t19 6l114 -8q15 -1 11 -15l-5 -27q-2 -10 -18 -12 h-45q-14 -2 -21 -7.5t-12 -25.5zM227 42q144 0 210 218l38 181q-40 47 -122 47q-88 0 -146 -71t-80 -173q-9 -53 -7.5 -98t29 -74.5t78.5 -29.5zM274 714q5 22 22.5 37t36.5 15t29.5 -13t6.5 -36q-4 -21 -22 -35t-38 -14t-29.5 12.5t-5.5 33.5zM432 714q5 22 23 37t37 15 t29.5 -13t6.5 -36q-4 -21 -22.5 -35t-38.5 -14q-19 0 -29 12.5t-6 33.5z" />
<glyph unicode="&#xe5;" horiz-adv-x="593" d="M468 91q-9 -42 22 -42q14 0 38 6q8 2 11.5 0.5t1.5 -9.5l-5 -26q-3 -12 -17 -17q-27 -7 -57 -7q-82 0 -63 86l1 7q-69 -102 -194 -102q-96 0 -135 68t-12 199q28 130 107 209.5t193 79.5q73 0 129 -44l1 8q4 16 10 22t19 6l114 -8q15 -1 11 -15l-5 -27q-2 -10 -18 -12 h-45q-14 -2 -21 -7.5t-12 -25.5zM227 42q144 0 210 218l38 181q-40 47 -122 47q-88 0 -146 -71t-80 -173q-9 -53 -7.5 -98t29 -74.5t78.5 -29.5zM388 662q-47 0 -70.5 22.5t-15.5 59.5q7 37 40.5 59.5t80.5 22.5t71 -22.5t17 -59.5q-8 -37 -42 -59.5t-81 -22.5zM395 696 q23 0 42.5 13t24.5 35q4 22 -9 35t-37 13q-23 0 -42 -13t-23 -35q-5 -22 8 -35t36 -13z" />
<glyph unicode="&#xe6;" horiz-adv-x="886" d="M706 544q105 0 152 -49.5t28 -137.5q-16 -79 -81.5 -123t-179.5 -44q-97 0 -164 27q-22 -175 151 -175q54 0 98 12q26 7 71 23q6 1 7.5 -1t0.5 -7l-6 -28q-2 -14 -21 -22q-78 -32 -162 -32q-184 0 -207 142q-26 -57 -88 -96t-148 -39q-155 0 -125 138q20 93 99 132.5 t223 39.5h53l9 44q18 83 -5.5 114t-94.5 31q-90 0 -130 -41q28 -11 21 -44q-4 -21 -21.5 -35t-36.5 -14t-28.5 13t-5.5 34l1 4q16 74 68.5 104t141.5 30q74 0 114 -21.5t49 -73.5q85 95 217 95zM695 492q-87 0 -144.5 -59.5t-81.5 -164.5q74 -27 156 -27q170 0 196 121 q13 61 -20.5 95.5t-105.5 34.5zM98 132q-19 -86 80 -86q75 0 134 45.5t76 124.5l8 38h-53q-114 0 -172.5 -28t-72.5 -94z" />
<glyph unicode="&#xe7;" horiz-adv-x="518" d="M170 -58l37 55q-100 15 -135 86t-11 185q27 127 111 201.5t203 74.5q90 0 126.5 -40.5t25.5 -93.5q-5 -23 -22 -37t-39 -14q-20 0 -30.5 13t-6.5 35q7 33 38 49q-28 33 -102 33q-94 0 -152.5 -63.5t-79.5 -163.5q-45 -213 150 -213q71 0 162 37q13 5 16 3t1 -12l-5 -25 q-3 -14 -18 -22q-70 -38 -174 -38h-12l-11 -19q46 6 70 -13t15 -63q-20 -90 -138 -90q-34 0 -70 6q-7 1 -4 13l3 18q2 9 4 10.5t8 0.5q46 -7 66 -7q68 0 78 48q5 21 -7.5 29.5t-35.5 8.5q-10 0 -30 -2t-25 -2q-15 0 -6 12z" />
<glyph unicode="&#xe8;" horiz-adv-x="524" d="M345 544q98 0 140 -45.5t23 -130.5q-37 -161 -236 -161q-88 0 -147 26q-16 -99 18.5 -143t116.5 -44q72 0 135 25q12 4 23.5 9t16.5 7t8 2q8 0 5 -10l-5 -26q-2 -9 -6.5 -13.5t-18.5 -11.5q-25 -13 -72 -24.5t-94 -11.5q-127 0 -172.5 71.5t-17.5 201.5q28 129 101.5 204 t181.5 75zM338 492q-74 0 -125.5 -54.5t-76.5 -153.5q64 -26 142 -26q143 0 168 118q25 116 -108 116zM405 687l-8 -12q-8 -10 -26 -3l-130 52q-19 9 -8 22l25 32q8 11 27 -1l118 -70q11 -7 2 -20z" />
<glyph unicode="&#xe9;" horiz-adv-x="524" d="M345 544q98 0 140 -45.5t23 -130.5q-37 -161 -236 -161q-88 0 -147 26q-16 -99 18.5 -143t116.5 -44q72 0 135 25q12 4 23.5 9t16.5 7t8 2q8 0 5 -10l-5 -26q-2 -9 -6.5 -13.5t-18.5 -11.5q-25 -13 -72 -24.5t-94 -11.5q-127 0 -172.5 71.5t-17.5 201.5q28 129 101.5 204 t181.5 75zM338 492q-74 0 -125.5 -54.5t-76.5 -153.5q64 -26 142 -26q143 0 168 118q25 116 -108 116zM333 670l-4 11q-3 12 13 19l146 70q22 10 27 1l13 -30q7 -12 -14 -20l-157 -54q-21 -8 -24 3z" />
<glyph unicode="&#xea;" horiz-adv-x="524" d="M345 544q98 0 140 -45.5t23 -130.5q-37 -161 -236 -161q-88 0 -147 26q-16 -99 18.5 -143t116.5 -44q72 0 135 25q12 4 23.5 9t16.5 7t8 2q8 0 5 -10l-5 -26q-2 -9 -6.5 -13.5t-18.5 -11.5q-25 -13 -72 -24.5t-94 -11.5q-127 0 -172.5 71.5t-17.5 201.5q28 129 101.5 204 t181.5 75zM338 492q-74 0 -125.5 -54.5t-76.5 -153.5q64 -26 142 -26q143 0 168 118q25 116 -108 116zM461 665l-60 71l-89 -71q-15 -13 -30 -13h-31q-8 0 -8 6t7 11l125 102q16 14 36 14q14 0 19.5 -2t12.5 -12l83 -102q4 -5 1 -11t-11 -6h-31q-12 0 -24 13z" />
<glyph unicode="&#xeb;" horiz-adv-x="524" d="M345 544q98 0 140 -45.5t23 -130.5q-37 -161 -236 -161q-88 0 -147 26q-16 -99 18.5 -143t116.5 -44q72 0 135 25q12 4 23.5 9t16.5 7t8 2q8 0 5 -10l-5 -26q-2 -9 -6.5 -13.5t-18.5 -11.5q-25 -13 -72 -24.5t-94 -11.5q-127 0 -172.5 71.5t-17.5 201.5q28 129 101.5 204 t181.5 75zM338 492q-74 0 -125.5 -54.5t-76.5 -153.5q64 -26 142 -26q143 0 168 118q25 116 -108 116zM269 710q5 22 22.5 37t36.5 15q20 0 30.5 -13.5t5.5 -35.5q-4 -21 -21.5 -35t-37.5 -14t-30 12.5t-6 33.5zM427 710q5 22 23 37t37 15q20 0 30.5 -13.5t5.5 -35.5 q-4 -21 -22 -35t-38 -14q-19 0 -29.5 13t-6.5 33z" />
<glyph unicode="&#xec;" horiz-adv-x="296" d="M170 85q-4 -20 2.5 -26.5t28.5 -6.5h36q10 0 12.5 -2.5t0.5 -10.5l-6 -25q-3 -14 -18 -14h-216q-15 0 -12 14l5 25q3 13 18 13h37q22 0 31.5 6.5t13.5 26.5l76 360q4 21 -7 25.5t-60 4.5q-15 0 -12 13l5 23q4 15 20 16l116 7q14 0 17.5 -6t0.5 -22zM287 687l-8 -12 q-8 -10 -26 -3l-130 52q-19 9 -8 22l25 32q8 11 27 -1l118 -70q11 -7 2 -20z" />
<glyph unicode="&#xed;" horiz-adv-x="296" d="M170 85q-4 -20 2.5 -26.5t28.5 -6.5h36q10 0 12.5 -2.5t0.5 -10.5l-6 -25q-3 -14 -18 -14h-216q-15 0 -12 14l5 25q3 13 18 13h37q22 0 31.5 6.5t13.5 26.5l76 360q4 21 -7 25.5t-60 4.5q-15 0 -12 13l5 23q4 15 20 16l116 7q14 0 17.5 -6t0.5 -22zM211 670l-4 11 q-3 12 13 19l146 70q22 10 27 1l13 -30q7 -12 -14 -20l-157 -54q-21 -8 -24 3z" />
<glyph unicode="&#xee;" horiz-adv-x="296" d="M170 85q-4 -20 2.5 -26.5t28.5 -6.5h36q10 0 12.5 -2.5t0.5 -10.5l-6 -25q-3 -14 -18 -14h-216q-15 0 -12 14l5 25q3 13 18 13h37q22 0 31.5 6.5t13.5 26.5l76 360q4 21 -7 25.5t-60 4.5q-15 0 -12 13l5 23q4 15 20 16l116 7q14 0 17.5 -6t0.5 -22zM333 665l-60 71 l-89 -71q-15 -13 -30 -13h-31q-8 0 -8 6t7 11l125 102q16 14 36 14q14 0 19.5 -2t12.5 -12l83 -102q4 -5 1 -11t-11 -6h-31q-12 0 -24 13z" />
<glyph unicode="&#xef;" horiz-adv-x="296" d="M170 85q-4 -20 2.5 -26.5t28.5 -6.5h36q10 0 12.5 -2.5t0.5 -10.5l-6 -25q-3 -14 -18 -14h-216q-15 0 -12 14l5 25q3 13 18 13h37q22 0 31.5 6.5t13.5 26.5l76 360q4 21 -7 25.5t-60 4.5q-15 0 -12 13l5 23q4 15 20 16l116 7q14 0 17.5 -6t0.5 -22zM142 710q5 22 22.5 37 t36.5 15q20 0 30.5 -13.5t5.5 -35.5q-4 -21 -21.5 -35t-37.5 -14t-30 12.5t-6 33.5zM300 710q5 22 23 37t37 15q20 0 30.5 -13.5t5.5 -35.5q-4 -21 -22 -35t-38 -14q-19 0 -29.5 13t-6.5 33z" />
<glyph unicode="&#xf0;" horiz-adv-x="582" d="M628 626l-109 -38q74 -124 37 -299q-10 -46 -31.5 -92.5t-59 -96t-99 -80.5t-136.5 -31q-112 0 -158 69t-26 164q19 93 95 161.5t182 67.5q61 -1 112 -34t65 -79q17 122 -50 225l-141 -50q-32 -12 -35 16q-2 16 5 23.5t28 15.5l111 39q-41 49 -96 95q-9 6 -6 14q2 7 7 11 l21 16q12 8 18 8q5 0 14 -6q74 -62 113 -112l134 48q28 10 30 -18q7 -25 -25 -37zM244 48q85 0 139.5 51.5t69.5 119.5q16 76 -30 125.5t-105 49.5q-76 0 -131.5 -52t-70.5 -122t17 -121t111 -51z" />
<glyph unicode="&#xf1;" horiz-adv-x="616" d="M177 445q4 21 -7 25.5t-59 4.5q-15 0 -12 13l5 23q2 9 5.5 12t13.5 4l115 7q13 0 16.5 -6.5t0.5 -21.5l-14 -68q31 52 80.5 79t106.5 27q80 0 117 -44.5t19 -130.5l-59 -278q-9 -42 23 -42q15 0 37 6q8 2 11.5 0.5t1.5 -9.5l-5 -27q-3 -10 -11 -14q-27 -9 -63 -9 q-82 0 -63 86l58 275q28 128 -88 128q-76 0 -127 -57t-73 -162l-54 -252q-2 -8 -5 -11t-12 -3h-37q-16 0 -13 14zM492 713q29 0 37 34q3 7 11 7h27q7 0 6 -9q-17 -80 -90 -80q-44 0 -52 27l-1 4q-1 3 -1.5 3.5t-2 3.5t-2.5 3.5t-3.5 2t-5.5 2t-7 0.5q-27 0 -37 -34 q-3 -8 -10 -8h-26q-8 0 -6 10q8 38 31.5 58.5t58.5 20.5q17 0 27.5 -5.5t13 -10.5t6.5 -14q8 -15 26 -15z" />
<glyph unicode="&#xf2;" horiz-adv-x="568" d="M64 278q25 121 95.5 193.5t191.5 72.5q127 0 173 -79.5t18 -210.5q-25 -121 -97 -194t-193 -73q-126 0 -171 80.5t-17 210.5zM350 492q-170 0 -218 -226q-48 -227 122 -227q172 0 220 227q48 226 -124 226zM405 687l-8 -12q-8 -10 -26 -3l-130 52q-19 9 -8 22l25 32 q8 11 27 -1l118 -70q11 -7 2 -20z" />
<glyph unicode="&#xf3;" horiz-adv-x="568" d="M64 278q25 121 95.5 193.5t191.5 72.5q127 0 173 -79.5t18 -210.5q-25 -121 -97 -194t-193 -73q-126 0 -171 80.5t-17 210.5zM350 492q-170 0 -218 -226q-48 -227 122 -227q172 0 220 227q48 226 -124 226zM347 670l-4 11q-3 12 13 19l146 70q22 10 27 1l13 -30 q7 -12 -14 -20l-157 -54q-21 -8 -24 3z" />
<glyph unicode="&#xf4;" horiz-adv-x="568" d="M64 278q25 121 95.5 193.5t191.5 72.5q127 0 173 -79.5t18 -210.5q-25 -121 -97 -194t-193 -73q-126 0 -171 80.5t-17 210.5zM350 492q-170 0 -218 -226q-48 -227 122 -227q172 0 220 227q48 226 -124 226zM461 665l-60 71l-89 -71q-15 -13 -30 -13h-31q-8 0 -8 6t7 11 l125 102q16 14 36 14q14 0 19.5 -2t12.5 -12l83 -102q4 -5 1 -11t-11 -6h-31q-12 0 -24 13z" />
<glyph unicode="&#xf5;" horiz-adv-x="568" d="M64 278q25 121 95.5 193.5t191.5 72.5q127 0 173 -79.5t18 -210.5q-25 -121 -97 -194t-193 -73q-126 0 -171 80.5t-17 210.5zM350 492q-170 0 -218 -226q-48 -227 122 -227q172 0 220 227q48 226 -124 226zM441 713q29 0 37 34q4 7 11 7h27q7 0 6 -9q-17 -80 -90 -80 q-44 0 -52 27l-1 4q-1 3 -1.5 3.5t-2 3.5t-2.5 3.5t-3.5 2t-5.5 2t-7 0.5q-27 0 -37 -34q-3 -8 -10 -8h-26q-8 0 -6 10q8 38 31.5 58.5t58.5 20.5q17 0 27.5 -5.5t13 -10.5t6.5 -14q7 -15 26 -15z" />
<glyph unicode="&#xf6;" horiz-adv-x="568" d="M64 278q25 121 95.5 193.5t191.5 72.5q127 0 173 -79.5t18 -210.5q-25 -121 -97 -194t-193 -73q-126 0 -171 80.5t-17 210.5zM350 492q-170 0 -218 -226q-48 -227 122 -227q172 0 220 227q48 226 -124 226zM269 710q5 22 22.5 37t36.5 15q20 0 30.5 -13.5t5.5 -35.5 q-4 -21 -21.5 -35t-37.5 -14t-30 12.5t-6 33.5zM427 710q5 22 23 37t37 15q20 0 30.5 -13.5t5.5 -35.5q-4 -21 -22 -35t-38 -14q-19 0 -29.5 13t-6.5 33z" />
<glyph unicode="&#xf7;" horiz-adv-x="567" d="M521 308h-421q-10 0 -9 11l7 31q1 10 13 10h421q10 0 9 -10l-7 -31q-1 -11 -13 -11zM312 533q5 25 25 41.5t42 16.5q21 0 33 -14.5t7 -38.5q-5 -25 -24.5 -40.5t-42.5 -15.5q-22 0 -33.5 14t-6.5 37zM225 123q5 25 25 41.5t42 16.5q21 0 33 -14.5t7 -38.5 q-6 -25 -25.5 -40.5t-41.5 -15.5t-33.5 14t-6.5 37z" />
<glyph unicode="&#xf8;" horiz-adv-x="568" d="M54 -69l60 97q-88 72 -50 250q25 121 95.5 193.5t191.5 72.5q44 0 82 -11l59 93q7 11 10.5 13.5t9.5 1.5l41 -8q11 -4 -1 -21l-67 -105q97 -71 57 -253q-25 -121 -97 -194t-193 -73q-47 0 -86 13l-55 -86q-9 -16 -19 -13l-38 10q-4 1 -5.5 2.5t-0.5 5.5t6 12zM474 266 q29 134 -22 189l-256 -407q22 -9 58 -9q172 0 220 227zM350 492q-170 0 -218 -226q-28 -129 16 -185l255 404q-28 7 -53 7z" />
<glyph unicode="&#xf9;" d="M485 91q-9 -42 22 -42q15 0 37 6q8 2 11.5 0.5t1.5 -9.5l-5 -26q-3 -12 -17 -17q-25 -7 -57 -7q-73 0 -65 72q-71 -77 -188 -77q-84 0 -116.5 42.5t-12.5 140.5l58 271q4 21 -7 25.5t-60 4.5q-14 0 -11 13l5 23q2 9 5.5 12t13.5 4l117 7q13 0 16.5 -6.5t0.5 -21.5 l-71 -336q-26 -123 85 -123q77 0 129.5 50.5t71.5 141.5l45 212q2 16 -10.5 20t-57.5 4q-15 0 -12 13l5 23q2 9 5.5 12t13.5 4l117 7q14 0 17.5 -6t0.5 -22zM394 687l-8 -12q-8 -10 -26 -3l-130 52q-19 9 -8 22l25 32q8 11 27 -1l118 -70q11 -7 2 -20z" />
<glyph unicode="&#xfa;" d="M485 91q-9 -42 22 -42q15 0 37 6q8 2 11.5 0.5t1.5 -9.5l-5 -26q-3 -12 -17 -17q-25 -7 -57 -7q-73 0 -65 72q-71 -77 -188 -77q-84 0 -116.5 42.5t-12.5 140.5l58 271q4 21 -7 25.5t-60 4.5q-14 0 -11 13l5 23q2 9 5.5 12t13.5 4l117 7q13 0 16.5 -6.5t0.5 -21.5 l-71 -336q-26 -123 85 -123q77 0 129.5 50.5t71.5 141.5l45 212q2 16 -10.5 20t-57.5 4q-15 0 -12 13l5 23q2 9 5.5 12t13.5 4l117 7q14 0 17.5 -6t0.5 -22zM336 670l-4 11q-3 12 13 19l146 70q22 10 27 1l13 -30q7 -12 -14 -20l-157 -54q-21 -8 -24 3z" />
<glyph unicode="&#xfb;" d="M485 91q-9 -42 22 -42q15 0 37 6q8 2 11.5 0.5t1.5 -9.5l-5 -26q-3 -12 -17 -17q-25 -7 -57 -7q-73 0 -65 72q-71 -77 -188 -77q-84 0 -116.5 42.5t-12.5 140.5l58 271q4 21 -7 25.5t-60 4.5q-14 0 -11 13l5 23q2 9 5.5 12t13.5 4l117 7q13 0 16.5 -6.5t0.5 -21.5 l-71 -336q-26 -123 85 -123q77 0 129.5 50.5t71.5 141.5l45 212q2 16 -10.5 20t-57.5 4q-15 0 -12 13l5 23q2 9 5.5 12t13.5 4l117 7q14 0 17.5 -6t0.5 -22zM451 665l-60 71l-89 -71q-15 -13 -30 -13h-31q-8 0 -8 6t7 11l125 102q16 14 36 14q14 0 19.5 -2t12.5 -12l83 -102 q4 -5 1 -11t-11 -6h-31q-12 0 -24 13z" />
<glyph unicode="&#xfc;" d="M485 91q-9 -42 22 -42q15 0 37 6q8 2 11.5 0.5t1.5 -9.5l-5 -26q-3 -12 -17 -17q-25 -7 -57 -7q-73 0 -65 72q-71 -77 -188 -77q-84 0 -116.5 42.5t-12.5 140.5l58 271q4 21 -7 25.5t-60 4.5q-14 0 -11 13l5 23q2 9 5.5 12t13.5 4l117 7q13 0 16.5 -6.5t0.5 -21.5 l-71 -336q-26 -123 85 -123q77 0 129.5 50.5t71.5 141.5l45 212q2 16 -10.5 20t-57.5 4q-15 0 -12 13l5 23q2 9 5.5 12t13.5 4l117 7q14 0 17.5 -6t0.5 -22zM258 710q5 22 22.5 37t36.5 15q20 0 30.5 -13.5t5.5 -35.5q-4 -21 -21.5 -35t-37.5 -14t-30 12.5t-6 33.5zM416 710 q5 22 23 37t37 15q20 0 30.5 -13.5t5.5 -35.5q-4 -21 -22 -35t-38 -14q-19 0 -29.5 13t-6.5 33z" />
<glyph unicode="&#xfd;" d="M465 -10q-25 -122 -102 -180.5t-193 -58.5q-79 0 -127.5 31.5t-33.5 101.5q4 21 20.5 35t35.5 14q18 0 29 -13t6 -34q-6 -30 -34 -42q26 -39 117 -39q82 0 138.5 44.5t75.5 133.5l18 84q-73 -76 -188 -76q-84 0 -116.5 42.5t-12.5 140.5l58 271q4 21 -7 25.5t-60 4.5 q-14 0 -11 13l5 23q2 9 5.5 12t13.5 4l117 7q13 0 16.5 -6.5t0.5 -21.5l-71 -336q-26 -123 85 -123q75 0 127 48t72 135l48 222q1 16 -12 19.5t-57 3.5q-15 0 -12 13l5 23q2 9 5.5 12t13.5 4l117 7q14 0 17.5 -6t0.5 -22zM338 670l-4 11q-3 12 13 19l146 70q23 10 27 1 l13 -30q7 -12 -14 -20l-157 -54q-21 -8 -24 3z" />
<glyph unicode="&#xfe;" horiz-adv-x="579" d="M249 634h-2l-47 -220q74 129 216 129q198 0 139 -279q-59 -277 -282 -277q-83 0 -154 39h-1l-16 -77h2l-19 -88q-5 -19 -22 -20h-32q-17 0 -13 19l14 67h-1l155 730h1l14 65q5 19 23 20h31q17 0 13 -19zM390 488q-151 0 -217 -218l-39 -184q48 -44 136 -44q167 0 217 233 q45 213 -97 213z" />
<glyph unicode="&#xff;" d="M465 -10q-25 -122 -102 -180.5t-193 -58.5q-79 0 -127.5 31.5t-33.5 101.5q4 21 20.5 35t35.5 14q18 0 29 -13t6 -34q-6 -30 -34 -42q26 -39 117 -39q82 0 138.5 44.5t75.5 133.5l18 84q-73 -76 -188 -76q-84 0 -116.5 42.5t-12.5 140.5l58 271q4 21 -7 25.5t-60 4.5 q-14 0 -11 13l5 23q2 9 5.5 12t13.5 4l117 7q13 0 16.5 -6.5t0.5 -21.5l-71 -336q-26 -123 85 -123q75 0 127 48t72 135l48 222q1 16 -12 19.5t-57 3.5q-15 0 -12 13l5 23q2 9 5.5 12t13.5 4l117 7q14 0 17.5 -6t0.5 -22zM260 710q5 22 22.5 37t36.5 15q20 0 30.5 -13.5 t5.5 -35.5q-4 -21 -21.5 -35t-37.5 -14t-30 12.5t-6 33.5zM418 710q5 22 23 37t37 15q20 0 30.5 -13.5t5.5 -35.5q-4 -21 -22 -35t-38 -14q-19 0 -29.5 13t-6.5 33z" />
<glyph unicode="&#x152;" horiz-adv-x="1136" d="M84 371q11 53 31 102t54 97.5t78 83.5t107 57t138 22q197 0 263 -132l23 106q2 10 5.5 12.5t13.5 2.5h345q28 0 34 -7.5t0 -39.5l-14 -97q-2 -16 -4.5 -20t-13.5 -4h-22q-11 0 -13.5 3.5t-0.5 18.5l6 47q4 33 -8.5 40t-65.5 7h-201l-59 -278h130q22 0 30 28l10 39 q2 10 6 12.5t15 2.5h18q11 0 13.5 -3t-0.5 -12l-40 -188q-3 -15 -17 -15h-20q-11 0 -14 3t-1 12l6 39q5 30 -17 30h-128q-5 -20 -10 -35l-53 -253h243q31 0 41 6.5t18 30.5l29 93q8 14 24 14h19q17 0 11 -16l-46 -156q-5 -16 -11.5 -20t-21.5 -4h-371q-11 0 -12.5 2t0.5 13 l18 88q-111 -116 -285 -116q-78 0 -136.5 21.5t-90.5 58t-50 86t-15.5 104.5t12.5 114zM494 679q-61 0 -113 -19.5t-88 -50.5t-64.5 -74t-45 -85.5t-26.5 -88.5q-10 -45 -11.5 -87.5t9 -86t33.5 -75t67.5 -51.5t106.5 -20q63 0 116.5 20.5t89 52t63.5 75t44 84.5t25 85 q9 45 11 87t-8.5 85.5t-33.5 75.5t-67.5 52.5t-107.5 20.5z" />
<glyph unicode="&#x153;" horiz-adv-x="959" d="M64 278q25 121 95.5 193.5t191.5 72.5q153 0 191 -120q88 120 238 120q104 0 151 -49.5t28 -137.5q-16 -79 -81.5 -123t-179.5 -44q-96 0 -163 27q-22 -175 150 -175q55 0 98 12q26 7 71 23q6 1 8 -1t1 -7l-6 -28q-1 -9 -5 -13t-17 -9q-76 -32 -162 -32q-162 0 -199 106 q-80 -106 -222 -106q-126 0 -171 80.5t-17 210.5zM350 492q-170 0 -218 -226q-48 -227 122 -227q172 0 220 227l2 8q42 218 -126 218zM769 492q-83 0 -139 -53.5t-82 -149.5q0 -1 -1 -9.5t-2 -12.5q73 -26 154 -26q169 0 195 121q13 60 -20.5 95t-104.5 35z" />
<glyph unicode="&#x178;" horiz-adv-x="622" d="M301 291l-109 338q-8 25 -15.5 32.5t-23.5 7.5h-28q-10 0 -12.5 3.5t-0.5 13.5l5 22q3 14 17 14h186q9 0 11.5 -2.5t0.5 -11.5l-4 -21q-2 -10 -6 -13.5t-13 -3.5h-26q-18 0 -22.5 -5t2.5 -25l85 -290l219 291q13 20 11.5 24.5t-18.5 4.5h-26q-9 0 -11.5 4t0.5 14l4 20 q3 14 18 14h175q13 0 10 -14l-4 -21q-2 -10 -6 -13.5t-13 -3.5h-28q-14 0 -22.5 -5.5t-28.5 -31.5l-254 -326l-47 -222q-4 -20 3 -26.5t27 -6.5h34q10 0 12 -2.5t0 -10.5l-5 -24q-3 -15 -18 -15h-209q-10 0 -12.5 3t-1.5 11l6 24q3 14 19 14h33q19 0 28 6.5t15 27.5z M334 843q4 22 22 37t37 15q20 0 30 -13.5t5 -35.5q-4 -21 -21.5 -35t-37.5 -14t-29.5 12.5t-5.5 33.5zM492 843q4 22 22.5 37t37.5 15q20 0 30 -13.5t5 -35.5q-4 -21 -22 -35t-38 -14q-19 0 -29 12.5t-6 33.5z" />
<glyph unicode="&#x2c6;" horiz-adv-x="360" d="M325 687l-60 71l-89 -71q-17 -13 -30 -13h-31q-5 0 -7 3t-0.5 7t5.5 7l126 102q16 14 36 14q14 0 19.5 -2t12.5 -12l82 -102q4 -5 1.5 -11t-10.5 -6h-31q-13 0 -24 13z" />
<glyph unicode="&#x2dc;" horiz-adv-x="342" d="M317 735q28 0 37 34q4 7 10 7h27q8 0 7 -9q-18 -80 -90 -80q-43 0 -53 27l-1 4q-1 3 -1.5 3.5t-2 3.5t-2.5 3.5t-3.5 2t-5.5 2t-7 0.5q-26 0 -36 -34q-3 -8 -11 -8h-26q-5 0 -5.5 1.5t0.5 8.5q16 79 89 79q17 0 27.5 -5.5t14 -10.5t6.5 -14q6 -15 26 -15z" />
<glyph unicode="&#x2000;" horiz-adv-x="476" />
<glyph unicode="&#x2001;" horiz-adv-x="953" />
<glyph unicode="&#x2002;" horiz-adv-x="476" />
<glyph unicode="&#x2003;" horiz-adv-x="953" />
<glyph unicode="&#x2004;" horiz-adv-x="317" />
<glyph unicode="&#x2005;" horiz-adv-x="238" />
<glyph unicode="&#x2006;" horiz-adv-x="158" />
<glyph unicode="&#x2007;" horiz-adv-x="158" />
<glyph unicode="&#x2008;" horiz-adv-x="119" />
<glyph unicode="&#x2009;" horiz-adv-x="190" />
<glyph unicode="&#x200a;" horiz-adv-x="52" />
<glyph unicode="&#x2010;" horiz-adv-x="412" d="M113 339h257q9 0 11 -3.5t-1 -11.5l-4 -22q-2 -9 -5.5 -12t-11.5 -3h-257q-9 0 -11.5 3t-0.5 12l4 22q2 9 5.5 12t13.5 3z" />
<glyph unicode="&#x2011;" horiz-adv-x="412" d="M113 339h257q9 0 11 -3.5t-1 -11.5l-4 -22q-2 -9 -5.5 -12t-11.5 -3h-257q-9 0 -11.5 3t-0.5 12l4 22q2 9 5.5 12t13.5 3z" />
<glyph unicode="&#x2012;" horiz-adv-x="412" d="M113 339h257q9 0 11 -3.5t-1 -11.5l-4 -22q-2 -9 -5.5 -12t-11.5 -3h-257q-9 0 -11.5 3t-0.5 12l4 22q2 9 5.5 12t13.5 3z" />
<glyph unicode="&#x2013;" horiz-adv-x="521" d="M471 287h-373q-12 0 -9 11l6 31q3 10 14 10h373q11 0 8 -10l-6 -31q-3 -11 -13 -11z" />
<glyph unicode="&#x2014;" horiz-adv-x="842" d="M792 287h-694q-12 0 -9 11l6 31q3 10 14 10h695q10 0 7 -10l-6 -31q-3 -11 -13 -11z" />
<glyph unicode="&#x2018;" horiz-adv-x="219" d="M238 556q-5 -25 -24.5 -41.5t-43.5 -16.5q-22 0 -33 16t-5 45q16 74 125 156q14 10 21 1l5 -7q7 -8 -8 -18q-50 -36 -72 -83q20 -1 29.5 -15t5.5 -37z" />
<glyph unicode="&#x2019;" horiz-adv-x="219" d="M174 666q5 25 24 41.5t43 16.5q22 0 33 -16t5 -45q-16 -76 -125 -156q-14 -11 -20 -1l-5 7q-7 8 7 18q51 35 73 83q-21 1 -30.5 15t-4.5 37z" />
<glyph unicode="&#x201a;" horiz-adv-x="256" d="M48 42q5 25 24.5 41.5t43.5 16.5q22 0 33 -16t5 -45q-16 -76 -125 -156q-14 -10 -21 -1l-5 7q-7 8 8 18q50 36 72 83q-20 1 -29.5 15t-5.5 37z" />
<glyph unicode="&#x201c;" horiz-adv-x="369" d="M238 556q-5 -25 -24.5 -41.5t-43.5 -16.5q-22 0 -33 16t-5 45q16 74 125 156q14 10 21 1l5 -7q7 -8 -8 -18q-50 -36 -72 -83q20 -1 29.5 -15t5.5 -37zM389 556q-5 -25 -24.5 -41.5t-43.5 -16.5q-22 0 -33 16t-5 45q16 74 125 156q14 10 21 1l5 -7q7 -8 -8 -18 q-50 -36 -72 -83q20 -1 29.5 -15t5.5 -37z" />
<glyph unicode="&#x201d;" horiz-adv-x="370" d="M174 666q5 25 24 41.5t43 16.5q22 0 33 -16t5 -45q-16 -76 -125 -156q-14 -11 -20 -1l-5 7q-7 8 7 18q51 35 73 83q-21 1 -30.5 15t-4.5 37zM323 666q5 25 24 41.5t43 16.5q22 0 33 -16t5 -45q-16 -76 -125 -156q-14 -11 -20 -1l-5 7q-7 8 7 18q51 35 73 83 q-21 1 -30.5 15t-4.5 37z" />
<glyph unicode="&#x201e;" horiz-adv-x="420" d="M48 42q5 25 24.5 41.5t43.5 16.5q22 0 33 -16t5 -45q-16 -76 -125 -156q-14 -10 -21 -1l-5 7q-7 8 8 18q50 36 72 83q-20 1 -29.5 15t-5.5 37zM212 42q5 25 24.5 41.5t43.5 16.5q22 0 33 -16t5 -45q-16 -76 -125 -156q-14 -10 -21 -1l-5 7q-7 8 8 18q50 36 72 83 q-20 1 -29.5 15t-5.5 37z" />
<glyph unicode="&#x2022;" horiz-adv-x="303" d="M121 356q7 33 33.5 55t55.5 22q28 0 42 -20t7 -52q-7 -33 -33.5 -55.5t-54.5 -22.5t-42.5 20t-7.5 53z" />
<glyph unicode="&#x2026;" horiz-adv-x="806" d="M31 42q5 24 25.5 41t42.5 17q21 0 33 -14.5t6 -39.5q-5 -25 -24.5 -40.5t-42.5 -15.5q-22 0 -33 14t-7 38zM321 42q5 24 25.5 41t42.5 17q21 0 33 -14.5t6 -39.5q-5 -25 -24.5 -40.5t-42.5 -15.5q-22 0 -33 14t-7 38zM611 42q5 24 25.5 41t42.5 17q21 0 33 -14.5t6 -39.5 q-5 -25 -24.5 -40.5t-42.5 -15.5q-22 0 -33 14t-7 38z" />
<glyph unicode="&#x202f;" horiz-adv-x="190" />
<glyph unicode="&#x2039;" horiz-adv-x="442" d="M357 66q15 -15 12 -24q-3 -15 -22 -15h-31q-11 0 -23 9l-221 191q-17 14 -21 24t-1 26q4 16 12 26t31 24l303 191q14 9 27 9h31q19 0 15 -15q-2 -11 -23 -24l-336 -211z" />
<glyph unicode="&#x203a;" horiz-adv-x="442" d="M42 66l335 211l-246 211q-15 15 -13 24q4 15 23 15h31q11 0 23 -9l221 -191q17 -14 21 -24t0 -26q-3 -16 -11 -26t-31 -24l-303 -191q-14 -9 -27 -9h-31q-8 0 -12.5 3.5t-3.5 11.5q3 11 24 24z" />
<glyph unicode="&#x205f;" horiz-adv-x="238" />
<glyph unicode="&#x20ac;" horiz-adv-x="785" d="M699 555q4 20 19 34t34 17q-32 71 -158 71t-210 -75t-123 -196h309q19 0 13 -27q-5 -25 -28 -25h-308l-2 -6q-7 -36 -9 -69h243q19 0 13 -26q-5 -25 -28 -25h-229q15 -182 230 -182q109 0 226 51q15 8 21.5 7t3.5 -16l-5 -26q-3 -14 -20 -22q-94 -51 -241 -51 q-130 0 -205.5 60t-81.5 179h-97q-18 0 -15 26q3 16 11 20.5t23 4.5h79q2 37 10 75h-81q-20 0 -15 27q3 15 11 20t23 5h75q42 147 151 236t261 89q63 0 108.5 -15.5t68 -41.5t30 -56t0.5 -62q-6 -24 -24.5 -38t-41.5 -14q-22 0 -34 13.5t-7 37.5z" />
<glyph unicode="&#x2122;" horiz-adv-x="936" d="M621 709l58 -375v-1l214 379q6 10 20 10h90q6 0 7.5 -1.5t0.5 -8.5l-4 -17q-2 -12 -12 -12l-25 -1q-16 0 -21 -17l-66 -312q-4 -15 -1.5 -19.5t15.5 -4.5h22q14 0 11 -11l-4 -19q-2 -10 -15 -10h-136q-10 0 -8 10l4 19q3 11 12 11h22q20 0 26 24l58 273l-185 -330 q-5 -9 -18 -9h-44q-11 0 -15 8l-53 339l-61 -286q-2 -12 2 -15.5t19 -3.5h18q7 0 9 -1.5t1 -6.5l-5 -22q-2 -10 -13 -10h-132q-4 0 -6 0.5t-3 3t0 6.5l5 21q1 9 12 9h17q15 0 21 3.5t8 15.5l67 313q1 10 -2 15t-7 5.5t-13 1.5l-10 1q-9 0 -8 9l4 19q2 10 12 10h100 q10 0 12 -13zM208 679q-22 0 -28.5 -2.5t-10.5 -15.5l-10 -35q-4 -10 -16 -10h-21q-7 0 -8 2t1 9l21 77q4 12 7.5 15t13.5 3h294q10 0 12.5 -2.5t0.5 -14.5l-10 -78q-1 -5 -2 -6.5t-4 -3t-8 -1.5h-21q-7 0 -8.5 2t-0.5 8l3 37q1 12 -4.5 14t-30.5 2h-55l-70 -330 q-2 -12 2.5 -16t17.5 -4h17q7 0 8.5 -1.5t0.5 -7.5l-5 -20q-1 -11 -12 -11h-138q-10 0 -8 10l5 21q1 9 11 9h16q13 0 19.5 5.5t10.5 21.5l69 323h-59z" />
<glyph unicode="&#x25fc;" horiz-adv-x="525" d="M0 525h525v-525h-525v525z" />
</font>
</defs>
</svg>
